<?xml version="1.0" encoding="UTF-8"?>
<svg version="1.1" xmlns="http://www.w3.org/2000/svg" width="320" height="320">
<path d="M0 0 C105.6 0 211.2 0 320 0 C320 105.6 320 211.2 320 320 C214.4 320 108.8 320 0 320 C0 214.4 0 108.8 0 0 Z " fill="#FEFEFE" transform="translate(0,0)"/>
<path d="M0 0 C3.01033512 1.33286976 4.87638334 2.74419314 7.0625 5.1875 C11.4593603 9.7261945 16.60235491 12.7807767 22 16 C23.093125 16.70125 24.18625 17.4025 25.3125 18.125 C32.75670126 22.16812097 40.27586909 24.95044554 48.7421875 25.421875 C63.95119123 26.30907703 63.95119123 26.30907703 67.71630859 29.41650391 C70.55586311 33.11513602 71.99591035 37.29757471 73.31445312 41.72998047 C73.99927952 43.99761432 74.8068723 46.174337 75.671875 48.37890625 C81.68561724 63.94957511 84.0623751 79.32792535 84.61254883 95.94580078 C84.68757424 98.12715845 84.77825575 100.30753421 84.86914062 102.48828125 C84.91763249 103.89059193 84.96519071 105.29293528 85.01171875 106.6953125 C85.05772217 107.95359863 85.10372559 109.21188477 85.15112305 110.50830078 C84.99734624 114.0613151 84.23336749 116.6872041 83 120 C82.76169771 122.74290279 82.76169771 122.74290279 82.875 125.375 C82.89304688 126.24898438 82.91109375 127.12296875 82.9296875 128.0234375 C82.95289063 128.67570313 82.97609375 129.32796875 83 130 C83.99 130.268125 84.98 130.53625 86 130.8125 C90.09612784 131.976839 94.02843633 133.46711578 98 135 C97.67 136.32 97.34 137.64 97 139 C93.535 139.99 93.535 139.99 90 141 C101.41333713 145.90844979 111.64669369 147.3815209 124 148 C122.06537408 153.66777343 118.82169139 156.59212659 114 160 C112.37559734 160.75618745 110.72923646 161.46735798 109.0625 162.125 C106.83074492 162.95308612 106.83074492 162.95308612 105 164 C103.7886547 166.6087705 103.7886547 166.6087705 104 169 C94.23582984 169.63679371 87.07043378 166.654013 79.6171875 160.42578125 C79.08351562 159.95527344 78.54984375 159.48476562 78 159 C77.92156863 160.38419118 77.92156863 160.38419118 79.5 162.8125 C81 166 81 166 81 170 C75.28973316 170.4120066 72.23131315 169.3988079 67.375 166.4375 C63.04064117 163.62417157 63.04064117 163.62417157 58.1015625 163.28515625 C57.06128906 163.63900391 57.06128906 163.63900391 56 164 C56 164.66 56 165.32 56 166 C54.05859375 167.62109375 54.05859375 167.62109375 51.4375 169.4375 C50.59058594 170.03433594 49.74367187 170.63117188 48.87109375 171.24609375 C46.30738407 172.81222388 43.77678121 174.01643775 41.00170898 175.15356445 C37.78960078 176.51182511 34.66704728 178.05280798 31.52612305 179.56689453 C27.02860872 181.73492708 22.51602437 183.87083936 18 186 C17.33581055 186.31388672 16.67162109 186.62777344 15.98730469 186.95117188 C5.57706295 191.80967305 -1.1908724 191.90198493 -12 188 C-25.30082233 183.06129804 -42.5077758 175.96411972 -52 165 C-52 164.34 -52 163.68 -52 163 C-50.58344207 162.9727585 -49.16672955 162.95349533 -47.75 162.9375 C-46.96109375 162.92589844 -46.1721875 162.91429687 -45.359375 162.90234375 C-43.07987866 162.99669376 -41.18715384 163.3809942 -39 164 C-38.154375 164.165 -37.30875 164.33 -36.4375 164.5 C-34 165 -34 165 -31 166 C-31 165.01 -31 164.02 -31 163 C-46.75912066 158.93313015 -57.24986368 161.06851893 -71 169 C-73.95664519 170.4783226 -76.74229737 170.06032783 -80 170 C-79.86120413 164.44816534 -77.47006998 161.60838489 -73.85546875 157.703125 C-71.72683959 155.7492675 -69.81462919 154.68233435 -67 154 C-67.89203125 154.25007812 -68.7840625 154.50015625 -69.703125 154.7578125 C-73.12731844 156.04797069 -75.03633658 157.46184293 -77.75 159.875 C-85.50784141 166.27405781 -93.03217525 168.57583724 -103 169 C-103 167.35 -103 165.7 -103 164 C-103.56847656 163.85304687 -104.13695313 163.70609375 -104.72265625 163.5546875 C-111.86372651 161.48031984 -116.63485578 158.35697889 -120.9375 152.25 C-122 150 -122 150 -122 148 C-120.79085937 147.91363281 -119.58171875 147.82726562 -118.3359375 147.73828125 C-107.79353756 146.87225598 -98.7547998 145.1692619 -89 141 C-91.31 140.01 -93.62 139.02 -96 138 C-96 137.01 -96 136.02 -96 135 C-94.5437455 134.32880451 -93.08492133 133.66318193 -91.625 133 C-90.81289062 132.62875 -90.00078125 132.2575 -89.1640625 131.875 C-87 131 -87 131 -85 131 C-84.938125 130.38125 -84.87625 129.7625 -84.8125 129.125 C-84 127 -84 127 -81.4375 125.75 C-80.633125 125.5025 -79.82875 125.255 -79 125 C-79.33 124.67 -79.66 124.34 -80 124 C-83.71686658 105.3614063 -83.93376847 84.37418715 -79 66 C-78.80132324 65.23026855 -78.60264648 64.46053711 -78.39794922 63.66748047 C-75.94414394 54.31728761 -72.96905192 45.22395362 -69.0625 36.375 C-68.7631958 35.65836182 -68.4638916 34.94172363 -68.15551758 34.20336914 C-66.47555174 30.61525054 -65.38692299 29.16615198 -61.70703125 27.5859375 C-58.01094738 27.00173036 -54.35292841 26.57283091 -50.625 26.25 C-30.37224955 24.02693396 -14.26303912 14.26303912 0 0 Z " fill="#FDFBFA" transform="translate(159,62)"/>
<path d="M0 0 C3.45854519 3.45854519 4 7.21904213 4 12 C5.485 12.495 5.485 12.495 7 13 C7.33 13.66 7.66 14.32 8 15 C10.71446979 15.31241455 13.33909361 15.51336592 16.0625 15.625 C17.20041992 15.68300781 17.20041992 15.68300781 18.36132812 15.7421875 C20.24047195 15.83673562 22.12020336 15.91946756 24 16 C22.6122361 20.1632917 19.68699761 21.08276125 16 23 C15.030625 23.474375 14.06125 23.94875 13.0625 24.4375 C12.381875 24.953125 11.70125 25.46875 11 26 C10.56041229 29.92247493 11.46908887 32.72442704 13 36.3125 C13.37125 37.19550781 13.7425 38.07851562 14.125 38.98828125 C14.41375 39.65214844 14.7025 40.31601563 15 41 C17.35817766 41 18.81903388 40.95417268 21 40 C21.268125 39.195625 21.53625 38.39125 21.8125 37.5625 C25.83756851 25.48729447 37.05490617 14.12290756 48 8 C58.46433553 3.20739104 68.68906024 2.37171623 79.62109375 6.07421875 C82.78201265 7.30433005 85.87232804 8.65562188 88.94921875 10.08203125 C91.57244975 11.25623941 94.25494 12.15536615 97 13 C96.67 14.32 96.34 15.64 96 17 C93.69 17.66 91.38 18.32 89 19 C100.41333713 23.90844979 110.64669369 25.3815209 123 26 C121.06537408 31.66777343 117.82169139 34.59212659 113 38 C111.37559734 38.75618745 109.72923646 39.46735798 108.0625 40.125 C105.83074492 40.95308612 105.83074492 40.95308612 104 42 C102.7886547 44.6087705 102.7886547 44.6087705 103 47 C93.23582984 47.63679371 86.07043378 44.654013 78.6171875 38.42578125 C78.08351562 37.95527344 77.54984375 37.48476562 77 37 C76.92156863 38.38419118 76.92156863 38.38419118 78.5 40.8125 C80 44 80 44 80 48 C74.28973316 48.4120066 71.23131315 47.3988079 66.375 44.4375 C62.04064117 41.62417157 62.04064117 41.62417157 57.1015625 41.28515625 C56.40804687 41.52105469 55.71453125 41.75695312 55 42 C55 42.66 55 43.32 55 44 C53.05859375 45.62109375 53.05859375 45.62109375 50.4375 47.4375 C49.59058594 48.03433594 48.74367187 48.63117188 47.87109375 49.24609375 C45.30738407 50.81222388 42.77678121 52.01643775 40.00170898 53.15356445 C36.78960078 54.51182511 33.66704728 56.05280798 30.52612305 57.56689453 C26.02860872 59.73492708 21.51602437 61.87083936 17 64 C16.00371582 64.47083008 16.00371582 64.47083008 14.98730469 64.95117188 C4.57706295 69.80967305 -2.1908724 69.90198493 -13 66 C-26.30082233 61.06129804 -43.5077758 53.96411972 -53 43 C-53 42.34 -53 41.68 -53 41 C-51.58344207 40.9727585 -50.16672955 40.95349533 -48.75 40.9375 C-47.96109375 40.92589844 -47.1721875 40.91429687 -46.359375 40.90234375 C-44.07987866 40.99669376 -42.18715384 41.3809942 -40 42 C-39.154375 42.165 -38.30875 42.33 -37.4375 42.5 C-35 43 -35 43 -32 44 C-32 43.01 -32 42.02 -32 41 C-47.75912066 36.93313015 -58.24986368 39.06851893 -72 47 C-74.95664519 48.4783226 -77.74229737 48.06032783 -81 48 C-80.86120413 42.44816534 -78.47006998 39.60838489 -74.85546875 35.703125 C-72.72683959 33.7492675 -70.81462919 32.68233435 -68 32 C-69.33804688 32.37511719 -69.33804688 32.37511719 -70.703125 32.7578125 C-74.12731844 34.04797069 -76.03633658 35.46184293 -78.75 37.875 C-86.50784141 44.27405781 -94.03217525 46.57583724 -104 47 C-104 45.35 -104 43.7 -104 42 C-104.56847656 41.85304687 -105.13695313 41.70609375 -105.72265625 41.5546875 C-112.86372651 39.48031984 -117.63485578 36.35697889 -121.9375 30.25 C-123 28 -123 28 -123 26 C-121.79085937 25.91363281 -120.58171875 25.82726562 -119.3359375 25.73828125 C-108.79353756 24.87225598 -99.7547998 23.1692619 -90 19 C-92.31 18.01 -94.62 17.02 -97 16 C-97 15.01 -97 14.02 -97 13 C-94.98227749 12.0351342 -92.96065793 11.07841603 -90.9375 10.125 C-89.81214844 9.59132812 -88.68679687 9.05765625 -87.52734375 8.5078125 C-76.73580767 3.89481923 -63.25577699 2.8405857 -51.9375 6.5 C-36.19764175 13.45764986 -24.17921181 29.73947646 -17 45 C-13.54317743 41.20749425 -12.26185408 38.19617769 -11.25 33.1875 C-10.88648438 31.44533203 -10.88648438 31.44533203 -10.515625 29.66796875 C-10.34546875 28.78753906 -10.1753125 27.90710938 -10 27 C-10.9384375 26.28972656 -11.876875 25.57945312 -12.84375 24.84765625 C-14.06262553 23.91943565 -15.28136874 22.99104128 -16.5 22.0625 C-17.43005859 21.35963867 -17.43005859 21.35963867 -18.37890625 20.64257812 C-19.93766786 19.45209536 -21.47109164 18.22858708 -23 17 C-23 16.67 -23 16.34 -23 16 C-17.06 16 -11.12 16 -5 16 C-4.67 14.02 -4.34 12.04 -4 10 C-3.36490737 8.18909331 -2.67898885 6.39500564 -1.9375 4.625 C-1.57527344 3.75101563 -1.21304688 2.87703125 -0.83984375 1.9765625 C-0.42412109 0.99816406 -0.42412109 0.99816406 0 0 Z " fill="#FDF9F8" transform="translate(160,184)"/>
<path d="M0 0 C9.136875 -0.04125 18.27375 -0.0825 27.6875 -0.125 C32.0046106 -0.15231201 32.0046106 -0.15231201 36.40893555 -0.18017578 C38.69319472 -0.18601767 40.97745597 -0.19111395 43.26171875 -0.1953125 C44.44527954 -0.20554443 45.62884033 -0.21577637 46.8482666 -0.22631836 C47.98461548 -0.22656006 49.12096436 -0.22680176 50.29174805 -0.22705078 C51.27547897 -0.231492 52.2592099 -0.23593323 53.27275085 -0.24050903 C59.9304816 0.34661898 64.75266908 4.0536292 69 9 C72.60416233 15.49336854 74.04972355 21.7929075 72 29 C69.59564929 35.81849202 65.97926018 39.80093517 59.625 43.3125 C59.08875 43.539375 58.5525 43.76625 58 44 C59.32565369 47.79043692 60.95559215 50.39874074 63.5625 53.4375 C66.95787624 57.57154127 69.9834373 61.82074638 72.875 66.3125 C73.25599854 66.89894287 73.63699707 67.48538574 74.02954102 68.08959961 C76.06574418 71.29313451 77.72494578 74.42313736 79 78 C76.35793048 77.52784309 73.72016702 77.04590667 71.0859375 76.53125 C68.07501191 75.95324839 68.07501191 75.95324839 65.2890625 75.84375 C62.48944303 75.60255201 60.52574241 75.25200312 58 74 C55.85981757 71.27205259 54.3656548 68.48302429 52.80078125 65.390625 C50.8672784 61.75010337 48.64357771 58.6212111 46.125 55.375 C42.06698565 50.13397129 42.06698565 50.13397129 41 48 C34.93032007 47.6761238 30.22248799 47.47785693 25 51 C22.18643108 53.56197123 22.18643108 53.56197123 20 56 C19.40495868 36.46280992 19.40495868 36.46280992 26 29 C34.08861236 23.27744431 43.50182374 23.8215374 53 24 C51.58694019 28.49609939 49.52228765 30.89885544 46 34 C43.54418972 35.24546594 41.23335755 36.31880277 38.6875 37.3125 C38.04232422 37.57611328 37.39714844 37.83972656 36.73242188 38.11132812 C35.15949102 38.75215181 33.58034985 39.37769715 32 40 C32.52851563 39.86207031 33.05703125 39.72414062 33.6015625 39.58203125 C35.40005467 39.14558934 37.20968427 38.75462477 39.0234375 38.38671875 C45.24735264 37.08825627 49.98440685 35.93114058 55 32 C55.66 32 56.32 32 57 32 C58.14753683 25.44364834 58.14753683 25.44364834 56.875 19.0625 C53.63722477 15.50094725 51.04930074 14.12000721 46.21948242 13.56762695 C44.76515153 13.52652277 43.31032612 13.5008478 41.85546875 13.48828125 C41.08568192 13.47033005 40.31589508 13.45237885 39.52278137 13.43388367 C37.07774236 13.37994613 34.63289668 13.34593927 32.1875 13.3125 C30.52406174 13.27931218 28.86064893 13.24482116 27.19726562 13.20898438 C23.13165029 13.12422963 19.06609064 13.05734027 15 13 C15.00666183 13.6072139 15.01332367 14.2144278 15.02018738 14.84004211 C15.08646887 21.1500622 15.13177064 27.45998368 15.16479492 33.77026367 C15.17989747 36.12642431 15.20038091 38.48255677 15.22631836 40.83862305 C15.26263656 44.22191312 15.27971167 47.60483208 15.29296875 50.98828125 C15.30845261 52.04461258 15.32393646 53.10094391 15.33988953 54.18928528 C15.34022942 55.66047066 15.34022942 55.66047066 15.34057617 57.16137695 C15.34723801 58.02519485 15.35389984 58.88901276 15.36076355 59.77900696 C14.92197563 62.48034668 14.17024414 63.37935309 12 65 C11.34 65 10.68 65 10 65 C9.773125 65.5775 9.54625 66.155 9.3125 66.75 C7.67083893 69.56427613 5.56440947 71.02737733 3 73 C2.505 73.99 2.505 73.99 2 75 C1.34 75 0.68 75 0 75 C0 50.25 0 25.5 0 0 Z " fill="#D0AE6F" transform="translate(126,112)"/>
<path d="M0 0 C2.623231 1.17420816 5.30572125 2.0733349 8.05078125 2.91796875 C7.72078125 4.23796875 7.39078125 5.55796875 7.05078125 6.91796875 C4.74078125 7.57796875 2.43078125 8.23796875 0.05078125 8.91796875 C11.46411838 13.82641854 21.69747494 15.29948965 34.05078125 15.91796875 C32.11615533 21.58574218 28.87247264 24.51009534 24.05078125 27.91796875 C22.42637859 28.6741562 20.78001771 29.38532673 19.11328125 30.04296875 C16.88152617 30.87105487 16.88152617 30.87105487 15.05078125 31.91796875 C13.83943595 34.52673925 13.83943595 34.52673925 14.05078125 36.91796875 C4.28661109 37.55476246 -2.87878497 34.57198175 -10.33203125 28.34375 C-11.13253906 27.63798828 -11.13253906 27.63798828 -11.94921875 26.91796875 C-12.02765012 28.30215993 -12.02765012 28.30215993 -10.44921875 30.73046875 C-8.94921875 33.91796875 -8.94921875 33.91796875 -8.94921875 37.91796875 C-15.31999681 38.51367787 -18.50898268 36.73125734 -23.82421875 33.41796875 C-32.38224856 28.56610588 -40.21839384 26.58630838 -49.94921875 28.91796875 C-54.69419167 30.58275048 -59.11914612 32.77879677 -63.53515625 35.16796875 C-66.94921875 36.91796875 -66.94921875 36.91796875 -69.94921875 36.91796875 C-59.57564244 27.32343572 -59.57564244 27.32343572 -53.94921875 23.91796875 C-55.55665155 24.84985756 -57.16004674 25.7887131 -58.76171875 26.73046875 C-60.10169922 27.51357422 -60.10169922 27.51357422 -61.46875 28.3125 C-63.93723153 29.78737527 -63.93723153 29.78737527 -65.6484375 31.6171875 C-66.07769531 32.04644531 -66.50695312 32.47570312 -66.94921875 32.91796875 C-67.60921875 32.91796875 -68.26921875 32.91796875 -68.94921875 32.91796875 C-67.05700057 20.06957368 -56.06531922 8.51789607 -46.07421875 0.98046875 C-30.70908306 -9.00686945 -15.89793273 -7.37008959 0 0 Z " fill="#E93338" transform="translate(248.94921875,194.08203125)"/>
<path d="M0 0 C10.61651452 7.01304003 24.01749237 19.40286078 26.6875 32.328125 C26.790625 33.20984375 26.89375 34.0915625 27 35 C26.25556641 34.41992188 26.25556641 34.41992188 25.49609375 33.828125 C18.4027001 27.80921455 18.4027001 27.80921455 10 25 C10.97839844 25.52787109 10.97839844 25.52787109 11.9765625 26.06640625 C17.88079161 29.40168612 21.89568112 32.59958042 26 38 C22.49701136 36.94910341 19.29516692 35.68880065 16.0625 34 C7.97894749 29.93547453 -0.01047826 28.63144594 -9 30 C-14.64307949 32.02236797 -19.82243026 35.01342624 -25 38 C-27.95664519 39.4783226 -30.74229737 39.06032783 -34 39 C-33.86120413 33.44816534 -31.47006998 30.60838489 -27.85546875 26.703125 C-25.72683959 24.7492675 -23.81462919 23.68233435 -21 23 C-21.89203125 23.25007813 -22.7840625 23.50015625 -23.703125 23.7578125 C-27.12731844 25.04797069 -29.03633658 26.46184293 -31.75 28.875 C-39.50784141 35.27405781 -47.03217525 37.57583724 -57 38 C-57 36.35 -57 34.7 -57 33 C-57.56847656 32.85304687 -58.13695313 32.70609375 -58.72265625 32.5546875 C-65.86372651 30.48031984 -70.63485578 27.35697889 -74.9375 21.25 C-76 19 -76 19 -76 17 C-74.79085937 16.91363281 -73.58171875 16.82726562 -72.3359375 16.73828125 C-61.79353756 15.87225598 -52.7547998 14.1692619 -43 10 C-45.31 9.01 -47.62 8.02 -50 7 C-50 6.01 -50 5.02 -50 4 C-47.98227749 3.0351342 -45.96065793 2.07841603 -43.9375 1.125 C-42.81214844 0.59132812 -41.68679687 0.05765625 -40.52734375 -0.4921875 C-28.33554039 -5.70374464 -11.83921608 -6.79267827 0 0 Z " fill="#E83439" transform="translate(113,193)"/>
<path d="M0 0 C3.01033512 1.33286976 4.87638334 2.74419314 7.0625 5.1875 C11.4593603 9.7261945 16.60235491 12.7807767 22 16 C23.093125 16.70125 24.18625 17.4025 25.3125 18.125 C32.75670126 22.16812097 40.27586909 24.95044554 48.7421875 25.421875 C63.95119123 26.30907703 63.95119123 26.30907703 67.71630859 29.41650391 C70.55586311 33.11513602 71.99591035 37.29757471 73.31445312 41.72998047 C73.99927952 43.99761432 74.8068723 46.174337 75.671875 48.37890625 C84.78649304 71.97830471 87.92745957 99.3827776 81 124 C78.03 123.505 78.03 123.505 75 123 C75.06928711 122.175 75.13857422 121.35 75.20996094 120.5 C75.8756514 112.0094853 76.21573692 103.55796446 76.24023438 95.04101562 C76.24999572 93.00089546 76.28120736 90.96176372 76.3125 88.921875 C76.4308248 74.3219332 72.88573275 61.42646358 67.68505859 47.95068359 C67 46 67 46 66.23828125 42.58203125 C65.29439531 39.09655976 64.69915907 37.43719563 62 35 C56.03658441 33.07429923 49.66295657 32.83549887 43.45751953 32.28466797 C38.62083315 31.72440805 34.37684626 30.04935945 30 28 C29.16726562 27.6184375 28.33453125 27.236875 27.4765625 26.84375 C18.05916281 22.32339815 9.61356649 17.18822758 2 10 C-1.55730592 12.05547373 -4.80085665 14.31830214 -8.0625 16.8125 C-13.74539606 20.96978638 -19.57809842 24.13629489 -26 27 C-26.79019531 27.36867188 -27.58039063 27.73734375 -28.39453125 28.1171875 C-33.12358491 30.08826318 -37.46367184 31.09685615 -42.55859375 31.53515625 C-52.78128988 32.09874031 -52.78128988 32.09874031 -61.63134766 36.48583984 C-64.28746308 40.4143847 -65.3872835 44.81380212 -66.40820312 49.39794922 C-67.04357883 52.19161024 -67.82518423 54.91387488 -68.640625 57.66015625 C-70.2237076 63.07785714 -71.69007219 68.50966217 -73 74 C-73.19867676 74.82894775 -73.39735352 75.65789551 -73.60205078 76.51196289 C-74.94309451 82.57521782 -75.31229777 88.36275949 -75.25 94.5625 C-75.24613281 95.50689941 -75.24226563 96.45129883 -75.23828125 97.42431641 C-75.13380924 106.0418065 -74.26512321 114.48300979 -73 123 C-74.98 123 -76.96 123 -79 123 C-84.05180929 104.7774022 -83.89525967 84.23077387 -79 66 C-78.70198486 64.84540283 -78.70198486 64.84540283 -78.39794922 63.66748047 C-75.94414394 54.31728761 -72.96905192 45.22395362 -69.0625 36.375 C-68.7631958 35.65836182 -68.4638916 34.94172363 -68.15551758 34.20336914 C-66.47555174 30.61525054 -65.38692299 29.16615198 -61.70703125 27.5859375 C-58.01094738 27.00173036 -54.35292841 26.57283091 -50.625 26.25 C-30.37224955 24.02693396 -14.26303912 14.26303912 0 0 Z " fill="#DA3F44" transform="translate(159,62)"/>
<path d="M0 0 C0.74443359 0.56267578 0.74443359 0.56267578 1.50390625 1.13671875 C3.66447025 2.7643163 5.83139963 4.38312834 8 6 C8.87785156 6.66128906 8.87785156 6.66128906 9.7734375 7.3359375 C21.22649102 15.77785958 34.02902654 21.68501415 48.26416016 22.76831055 C59.64677438 23.71073778 59.64677438 23.71073778 63.64453125 27.51953125 C65.22135158 30.52011712 66.38905698 33.40661132 67.32421875 36.66308594 C68.09636349 39.33323385 68.99604472 41.94410257 69.90625 44.5703125 C74.1526404 57.09789379 76.18682725 68.16612773 76.18530273 81.4309082 C76.18746952 83.53292716 76.20561087 85.63440303 76.22460938 87.73632812 C76.26047664 96.67910077 75.53183503 105.16743052 74 114 C73.67 113.01 73.34 112.02 73 111 C72.34 111 71.68 111 71 111 C71.0721875 110.22140625 71.144375 109.4428125 71.21875 108.640625 C73.35491484 82.88797105 71.52077505 59.18960913 61.015625 35.3203125 C60 33 60 33 59 30 C57.38544922 29.74476562 57.38544922 29.74476562 55.73828125 29.484375 C36.65095628 26.36722526 19.43802549 20.74498953 4.234375 8.46875 C1.88856152 6.63380368 1.88856152 6.63380368 -2 7 C-4.33795601 8.48479062 -4.33795601 8.48479062 -6.75 10.5 C-18.38000472 19.23411806 -32.56208396 26.23119485 -47.21875 27.375 C-51.50228107 27.76777044 -55.00937744 28.30263113 -59 30 C-61.97293629 34.09042299 -63.27887553 38.12330986 -64.49267578 42.9921875 C-64.9592352 44.83866711 -65.53538981 46.65653711 -66.12109375 48.46875 C-72.90504282 69.74003353 -73.43004659 91.07220217 -70 113 C-70.66 112.67 -71.32 112.34 -72 112 C-72.66 113.32 -73.32 114.64 -74 116 C-69.71 116.33 -65.42 116.66 -61 117 C-61 117.33 -61 117.66 -61 118 C-62.05058594 118.04898438 -63.10117188 118.09796875 -64.18359375 118.1484375 C-71.65875491 118.53376426 -78.73596197 119.05427553 -86 121 C-85.1328125 119.046875 -85.1328125 119.046875 -84 117 C-81.875 116.25 -81.875 116.25 -80 116 C-80.495 113.525 -80.495 113.525 -81 111 C-80.67 111.99 -80.34 112.98 -80 114 C-78.02 114 -76.04 114 -74 114 C-74.2165625 113.02804688 -74.433125 112.05609375 -74.65625 111.0546875 C-80.61454853 82.46967091 -75.29399612 54.33784232 -63 28 C-61 25 -61 25 -58.88378906 24.37158203 C-57.58779785 24.19151611 -57.58779785 24.19151611 -56.265625 24.0078125 C-55.30591797 23.8631958 -54.34621094 23.7185791 -53.35742188 23.56958008 C-52.33197266 23.42286865 -51.30652344 23.27615723 -50.25 23.125 C-30.79143847 20.00030031 -15.09246579 12.72020829 0 0 Z " fill="#FBD2D1" transform="translate(160,71)"/>
<path d="M0 0 C4.87461475 -0.09924823 9.74863497 -0.17164581 14.62402344 -0.21972656 C16.28070325 -0.23978009 17.93731282 -0.26703029 19.59375 -0.30175781 C21.98194758 -0.35055512 24.36920547 -0.37303064 26.7578125 -0.390625 C27.85973434 -0.42159271 27.85973434 -0.42159271 28.98391724 -0.45318604 C34.15595769 -0.45541745 37.01103939 0.7606979 41 4 C43.6194321 7.04192115 44.2277057 9.15197825 43.9375 13.0625 C43.27732259 16.83899872 42.12522366 18.65608225 39 21 C35.25135601 23.52526454 31.97990138 24.65196379 27.5625 25.5625 C23.25410079 26.46283844 19.15458418 27.53994251 15 29 C19.0355429 24.29018933 23.87629869 22.9818918 29.58984375 20.953125 C33.98758848 18.43437086 35.716924 15.41715541 38 11 C34.95644992 11.25614035 31.91605725 11.52935171 28.875 11.8125 C28.0190625 11.88275391 27.163125 11.95300781 26.28125 12.02539062 C21.19451345 12.51449991 17.51483229 13.4331561 13 16 C12.34 16 11.68 16 11 16 C10.71125 16.763125 10.4225 17.52625 10.125 18.3125 C9 21 9 21 7 24 C5.84427637 29.66304579 5.89587842 35.25017505 6 41 C6.42410156 40.57847656 6.84820312 40.15695313 7.28515625 39.72265625 C11.51945795 35.76753928 14.19011172 34.2371383 20 34 C19.01 34.66 18.02 35.32 17 36 C15.47083878 37.15572969 13.95064867 38.32338357 12.4375 39.5 C11.65246094 40.1084375 10.86742187 40.716875 10.05859375 41.34375 C7.94409297 42.98412214 7.94409297 42.98412214 6 45 C5.01 45 4.02 45 3 45 C2.01 47.475 2.01 47.475 1 50 C0.01 50 -0.98 50 -2 50 C-1.505 49.505 -1.505 49.505 -1 49 C-0.8774645 47.46617321 -0.82222062 45.92689481 -0.79467773 44.38842773 C-0.77473251 43.40748642 -0.75478729 42.4265451 -0.73423767 41.4158783 C-0.71752518 40.3492244 -0.70081268 39.2825705 -0.68359375 38.18359375 C-0.66281265 37.0974025 -0.64203156 36.01121124 -0.62062073 34.8921051 C-0.55500558 31.40730373 -0.49618489 27.92242432 -0.4375 24.4375 C-0.39432615 22.08137199 -0.35071224 19.72525201 -0.30664062 17.36914062 C-0.19931208 11.57951063 -0.09756835 5.78980225 0 0 Z " fill="#FBF8EE" transform="translate(141,125)"/>
<path d="M0 0 C3.45854519 3.45854519 4 7.21904213 4 12 C4.99 12.33 5.98 12.66 7 13 C7.33 13.66 7.66 14.32 8 15 C10.71446979 15.31241455 13.33909361 15.51336592 16.0625 15.625 C17.20041992 15.68300781 17.20041992 15.68300781 18.36132812 15.7421875 C20.24047195 15.83673562 22.12020336 15.91946756 24 16 C22.6122361 20.1632917 19.68699761 21.08276125 16 23 C15.030625 23.474375 14.06125 23.94875 13.0625 24.4375 C12.381875 24.953125 11.70125 25.46875 11 26 C10.56659221 29.88733445 11.44269468 32.58861916 13 36.125 C14.29580413 39.0855525 15 40.73684132 15 44 C11.34683329 42.75023244 10.21934164 42.32901247 8 39 C5.14689006 37.32748727 2.06758643 36.22196418 -1 35 C-2.15628906 35.97453125 -2.15628906 35.97453125 -3.3359375 36.96875 C-4.33882812 37.8040625 -5.34171875 38.639375 -6.375 39.5 C-7.37273437 40.3353125 -8.37046875 41.170625 -9.3984375 42.03125 C-12 44 -12 44 -14 44 C-13.79503906 43.19175781 -13.59007812 42.38351563 -13.37890625 41.55078125 C-13.10949219 40.48214844 -12.84007812 39.41351563 -12.5625 38.3125 C-12.29566406 37.25675781 -12.02882812 36.20101562 -11.75390625 35.11328125 C-11.10102068 32.4171683 -10.52058807 29.7242424 -10 27 C-10.9384375 26.28972656 -11.876875 25.57945312 -12.84375 24.84765625 C-14.06262553 23.91943565 -15.28136874 22.99104128 -16.5 22.0625 C-17.12003906 21.59392578 -17.74007812 21.12535156 -18.37890625 20.64257812 C-19.93766786 19.45209536 -21.47109164 18.22858708 -23 17 C-23 16.67 -23 16.34 -23 16 C-17.06 16 -11.12 16 -5 16 C-4.67 14.02 -4.34 12.04 -4 10 C-3.36490737 8.18909331 -2.67898885 6.39500564 -1.9375 4.625 C-1.57527344 3.75101563 -1.21304688 2.87703125 -0.83984375 1.9765625 C-0.56269531 1.32429687 -0.28554687 0.67203125 0 0 Z " fill="#FCF2EE" transform="translate(160,184)"/>
<path d="M0 0 C7.33819751 -1.13868582 11.26705036 1.08997 17.12792969 5.15258789 C22.15750575 8.58857546 27.3587486 11.29963843 32.875 13.875 C33.6592334 14.24359131 34.4434668 14.61218262 35.25146484 14.99194336 C37.48902897 16.0243916 39.74029265 17.01712327 42 18 C42.68223633 18.31614258 43.36447266 18.63228516 44.06738281 18.95800781 C50.39601643 21.68262189 55.00832897 20.94438319 61.46484375 18.90625 C68.4890682 16.06179465 75.28795527 12.96185759 82 9.4375 C82.69343506 9.07398438 83.38687012 8.71046875 84.10131836 8.3359375 C87.50394257 6.50347104 90.63769149 4.57397655 93.72265625 2.2421875 C98.09145916 -0.74671938 99.91390313 -0.44614885 105 0 C101.26681075 8.32376168 92.76345125 12.05215759 85 16 C83.98413818 16.52110352 82.96827637 17.04220703 81.92163086 17.57910156 C56.54497296 30.43730515 56.54497296 30.43730515 45.25 26.8125 C30.34389852 21.9118639 10.56378934 14.20184528 0 2 C0 1.34 0 0.68 0 0 Z " fill="#DA4347" transform="translate(107,225)"/>
<path d="M0 0 C3.25726608 1.46211445 6.09728331 3.39642797 9.02441406 5.42749023 C23.26070675 15.26899068 37.38205681 20.21447249 54.33886719 22.9987793 C59.80501469 23.90250735 59.80501469 23.90250735 62 25 C63.03334369 27.15759738 63.94566441 29.27558804 64.8125 31.5 C65.07385742 32.16346436 65.33521484 32.82692871 65.60449219 33.51049805 C67.54132279 38.54684452 69.21846672 43.6394245 70.75 48.8125 C71.04741089 49.81410156 71.04741089 49.81410156 71.35083008 50.8359375 C71.93639529 52.88278708 72.47522997 54.93676481 73 57 C73.28472168 58.04534912 73.28472168 58.04534912 73.57519531 59.11181641 C75.41765733 66.78765062 75.30309622 74.53477668 75.26074219 82.37841797 C75.24995903 84.75904436 75.26072007 87.1389268 75.2734375 89.51953125 C75.27211682 91.04948081 75.26955632 92.57942992 75.265625 94.109375 C75.26967346 94.81261902 75.27372192 95.51586304 75.27789307 96.24041748 C75.23743428 100.52736892 74.56444184 104.01199384 73 108 C72.12297437 105.08957421 71.99179001 102.99341031 72.4375 100 C75.07494725 76.50589752 71.51845113 53.91217694 62.015625 32.3203125 C61 30 61 30 60 27 C58.38544922 26.74476562 58.38544922 26.74476562 56.73828125 26.484375 C37.65095628 23.36722526 20.43802549 17.74498953 5.234375 5.46875 C2.88856152 3.63380368 2.88856152 3.63380368 -1 4 C-3.33795601 5.48479062 -3.33795601 5.48479062 -5.75 7.5 C-17.38000472 16.23411806 -31.56208396 23.23119485 -46.21875 24.375 C-50.50228107 24.76777044 -54.00937744 25.30263113 -58 27 C-60.97293629 31.09042299 -62.27887553 35.12330986 -63.49267578 39.9921875 C-63.9592352 41.83866711 -64.53538981 43.65653711 -65.12109375 45.46875 C-71.90504282 66.74003353 -72.43004659 88.07220217 -69 110 C-71 109 -71 109 -71.62182617 107.21142578 C-73.13055768 99.75230596 -73.3466512 92.47091988 -73.3125 84.875 C-73.30758545 83.58762939 -73.3026709 82.30025879 -73.29760742 80.97387695 C-73.12003309 66.5448239 -70.31253273 53.51732887 -65.6484375 39.91943359 C-65.004613 38.01365491 -64.4072599 36.09735135 -63.8125 34.17578125 C-63.420625 33.00402344 -63.02875 31.83226562 -62.625 30.625 C-62.11839844 29.06652344 -62.11839844 29.06652344 -61.6015625 27.4765625 C-60 25 -60 25 -56.90625 23.76171875 C-55.6171875 23.51035156 -54.328125 23.25898437 -53 23 C-51.94111572 22.7834375 -51.94111572 22.7834375 -50.86083984 22.5625 C-49.33882081 22.25246522 -47.81504 21.95097984 -46.28979492 21.65722656 C-29.21355584 18.33555191 -12.79415813 12.18491251 0 0 Z " fill="#BC676C" transform="translate(159,74)"/>
<path d="M0 0 C2.57146057 2.57146057 2.80117997 4.6050417 3.625 8.125 C4.01558594 9.76855469 4.01558594 9.76855469 4.4140625 11.4453125 C4.70410156 12.70988281 4.70410156 12.70988281 5 14 C2.525 13.505 2.525 13.505 0 13 C-0.66 15.31 -1.32 17.62 -2 20 C-5.96 20.495 -5.96 20.495 -10 21 C-9.154375 21.515625 -8.30875 22.03125 -7.4375 22.5625 C-6.633125 23.366875 -5.82875 24.17125 -5 25 C-5.11768752 28.41293795 -5.47017314 30.94034627 -7 34 C-4.36 32.35 -1.72 30.7 1 29 C5.8 32.32307692 5.8 32.32307692 6.8125 35.75 C6.874375 36.4925 6.93625 37.235 7 38 C6.2575 37.67 5.515 37.34 4.75 37 C1.86116688 35.77217129 1.86116688 35.77217129 -2 36 C-4.59306084 37.74692305 -4.59306084 37.74692305 -7.125 40 C-11.80555556 44 -11.80555556 44 -14 44 C-13.79503906 43.19175781 -13.59007812 42.38351563 -13.37890625 41.55078125 C-13.10949219 40.48214844 -12.84007812 39.41351563 -12.5625 38.3125 C-12.29566406 37.25675781 -12.02882812 36.20101562 -11.75390625 35.11328125 C-11.10102068 32.4171683 -10.52058807 29.7242424 -10 27 C-10.9384375 26.28972656 -11.876875 25.57945312 -12.84375 24.84765625 C-14.06262553 23.91943565 -15.28136874 22.99104128 -16.5 22.0625 C-17.12003906 21.59392578 -17.74007812 21.12535156 -18.37890625 20.64257812 C-19.93766786 19.45209536 -21.47109164 18.22858708 -23 17 C-23 16.67 -23 16.34 -23 16 C-17.06 16 -11.12 16 -5 16 C-4.67 14.02 -4.34 12.04 -4 10 C-3.36490737 8.18909331 -2.67898885 6.39500564 -1.9375 4.625 C-1.57527344 3.75101563 -1.21304688 2.87703125 -0.83984375 1.9765625 C-0.56269531 1.32429687 -0.28554687 0.67203125 0 0 Z " fill="#DA4148" transform="translate(160,184)"/>
<path d="M0 0 C5.22454583 0.36735088 9.51719539 3.27855086 14 5.75 C27.94349697 14.09028821 27.94349697 14.09028821 43.44921875 15.83203125 C53.51581212 12.54844107 63.00574272 7.73633615 72.12744141 2.40209961 C76.48609891 -0.05967884 76.48609891 -0.05967884 79.421875 0.28125 C80.20304687 0.63703125 80.20304687 0.63703125 81 1 C77.24022047 5.51385961 72.25340365 7.79250918 67.125 10.4375 C65.717948 11.16501465 65.717948 11.16501465 64.2824707 11.90722656 C43.85872005 22.28975196 43.85872005 22.28975196 34 20 C31.3806947 19.05966667 28.94945521 18.09786575 26.4375 16.9375 C25.7578418 16.63094482 25.07818359 16.32438965 24.37792969 16.00854492 C19.43428781 13.74375467 14.56855379 11.3317909 9.75 8.8125 C8.82078735 8.3318811 8.82078735 8.3318811 7.87280273 7.84155273 C4.36958151 5.96020217 1.65423806 3.96302318 -1 1 C-0.67 0.67 -0.34 0.34 0 0 Z " fill="#DD9EA2" transform="translate(120,226)"/>
<path d="M0 0 C2.29018595 3.43527893 3.10869109 6.73807832 4.0625 10.6875 C4.32256836 11.71133789 4.32256836 11.71133789 4.58789062 12.75585938 C8.98626326 30.60212994 8.9830106 51.2925159 4 69 C2.02 68.67 0.04 68.34 -2 68 C-1.9270874 67.21850586 -1.8541748 66.43701172 -1.77905273 65.63183594 C-1.18748229 58.52890728 -0.92407081 51.51473895 -0.97265625 44.390625 C-0.97816498 43.56429565 -0.98367371 42.73796631 -0.98934937 41.88659668 C-1.01700422 38.46334746 -1.05246037 35.04027244 -1.09594727 31.6171875 C-1.12596596 29.08332627 -1.14383174 26.54960592 -1.16015625 24.015625 C-1.17361588 23.23866272 -1.1870755 22.46170044 -1.20094299 21.66119385 C-1.20986028 19.77296192 -1.11394759 17.88481173 -1 16 C-0.34 15.34 0.32 14.68 1 14 C1.84355274 20.85475206 2.2839752 27.66330371 2.5625 34.5625 C2.60568359 35.57119141 2.64886719 36.57988281 2.69335938 37.61914062 C2.79829618 40.07932575 2.90045701 42.53959175 3 45 C3.66 45 4.32 45 5 45 C4.8604947 41.60387586 4.71227678 38.20818542 4.5625 34.8125 C4.52318359 33.85279297 4.48386719 32.89308594 4.44335938 31.90429688 C4.40146484 30.97294922 4.35957031 30.04160156 4.31640625 29.08203125 C4.27974854 28.22843018 4.24309082 27.3748291 4.20532227 26.49536133 C3.99436958 23.9315713 3.5322334 21.51483458 3 19 C2.835 17.7625 2.67 16.525 2.5 15.25 C2.35168218 12.15456096 2.35168218 12.15456096 1 11 C0.76636119 9.15108054 0.58696365 7.29511969 0.4375 5.4375 C0.35371094 4.42558594 0.26992187 3.41367188 0.18359375 2.37109375 C0.12300781 1.58863281 0.06242188 0.80617188 0 0 Z " fill="#DE464B" transform="translate(236,117)"/>
<path d="M0 0 C6.93 0 13.86 0 21 0 C19.6122361 4.1632917 16.68699761 5.08276125 13 7 C12.030625 7.474375 11.06125 7.94875 10.0625 8.4375 C9.381875 8.953125 8.70125 9.46875 8 10 C7.56659221 13.88733445 8.44269468 16.58861916 10 20.125 C11.29580413 23.0855525 12 24.73684132 12 28 C9.6484375 27.39453125 9.6484375 27.39453125 7 26 C5.6015625 23.13671875 5.6015625 23.13671875 4.625 19.6875 C4.28726563 18.55699219 3.94953125 17.42648438 3.6015625 16.26171875 C3.01074424 13.05825611 3.10533146 11.09648269 4 8 C4.99 7.67 5.98 7.34 7 7 C7 6.34 7 5.68 7 5 C4.69 4.67 2.38 4.34 0 4 C0 2.68 0 1.36 0 0 Z " fill="#CFB686" transform="translate(163,200)"/>
<path d="M0 0 C0.66 0.66 1.32 1.32 2 2 C-0.47289812 4.60305065 -3.1789106 6.78342975 -6 9 C-6.928125 9.7425 -7.85625 10.485 -8.8125 11.25 C-9.534375 11.8275 -10.25625 12.405 -11 13 C-11.66 12.67 -12.32 12.34 -13 12 C-12.43410156 11.51789063 -11.86820313 11.03578125 -11.28515625 10.5390625 C-10.55167969 9.90742188 -9.81820312 9.27578125 -9.0625 8.625 C-8.33160156 7.99851563 -7.60070312 7.37203125 -6.84765625 6.7265625 C-4.91619094 5.12252286 -4.91619094 5.12252286 -4 3 C-5.89600369 3.31146472 -7.79179587 3.62421717 -9.6875 3.9375 C-10.74324219 4.11152344 -11.79898438 4.28554687 -12.88671875 4.46484375 C-14.42779297 4.72974609 -14.42779297 4.72974609 -16 5 C-16.7734375 5.0928125 -17.546875 5.185625 -18.34375 5.28125 C-22.48418372 6.40160265 -26.06396849 8.5107053 -29.8125 10.5625 C-30.60076172 10.98724609 -31.38902344 11.41199219 -32.20117188 11.84960938 C-34.1373378 12.89396554 -36.07005367 13.9442077 -38 15 C-38.33 14.34 -38.66 13.68 -39 13 C-38.34 13 -37.68 13 -37 13 C-37.33 11.68 -37.66 10.36 -38 9 C-37.4124292 8.87310791 -36.8248584 8.74621582 -36.21948242 8.61547852 C-33.40779726 7.8357779 -31.02451277 6.44029238 -28.46508789 5.06591797 C-18.95496667 0.08057372 -10.67547327 -1.53404916 0 0 Z " fill="#FBDCD9" transform="translate(216,222)"/>
<path d="M0 0 C9.136875 -0.04125 18.27375 -0.0825 27.6875 -0.125 C32.0046106 -0.15231201 32.0046106 -0.15231201 36.40893555 -0.18017578 C38.69319472 -0.18601767 40.97745597 -0.19111395 43.26171875 -0.1953125 C44.44527954 -0.20554443 45.62884033 -0.21577637 46.8482666 -0.22631836 C47.98461548 -0.22656006 49.12096436 -0.22680176 50.29174805 -0.22705078 C51.27547897 -0.231492 52.2592099 -0.23593323 53.27275085 -0.24050903 C56.18541168 0.01635098 58.35537893 0.78357109 61 2 C58 3 58 3 55 2 C53.23659857 1.88427033 51.46935231 1.82350925 49.70239258 1.79467773 C48.60640747 1.77449585 47.51042236 1.75431396 46.38122559 1.73352051 C45.23061646 1.71704468 44.08000732 1.70056885 42.89453125 1.68359375 C41.83600952 1.66494263 40.77748779 1.6462915 39.68688965 1.6270752 C35.72884551 1.55872326 31.77066258 1.4986092 27.8125 1.4375 C18.964375 1.293125 10.11625 1.14875 1 1 C1 24.1 1 47.2 1 71 C1.66 71 2.32 71 3 71 C3.2475 70.38125 3.495 69.7625 3.75 69.125 C5.20628639 66.64931313 6.37812506 66.04874998 9 65 C9 65.99 9 66.98 9 68 C7.03814584 69.71140469 5.03697617 71.37873325 3 73 C2.505 73.99 2.505 73.99 2 75 C1.34 75 0.68 75 0 75 C0 50.25 0 25.5 0 0 Z " fill="#CAB080" transform="translate(126,112)"/>
<path d="M0 0 C4.15450727 0.46161192 6.29100797 0.80108388 9 4 C9.94628222 5.44741195 10.84078179 6.92968049 11.6875 8.4375 C12.12449219 9.19933594 12.56148437 9.96117187 13.01171875 10.74609375 C14 13 14 13 14 17 C7.87807117 17.50949733 4.31064891 16.04897366 -0.9375 13 C-1.62134766 12.6184375 -2.30519531 12.236875 -3.00976562 11.84375 C-4.68061625 10.90900839 -6.34139976 9.95631005 -8 9 C-4.36147686 8.04207023 -0.72908331 7.50199198 3 7 C3.33 5.68 3.66 4.36 4 3 C2.68 2.01 1.36 1.02 0 0 Z " fill="#E8434A" transform="translate(226,215)"/>
<path d="M0 0 C0.28875 0.639375 0.5775 1.27875 0.875 1.9375 C1.82823451 4.15206079 1.82823451 4.15206079 4 5 C4.5625 7.58203125 4.5625 7.58203125 5 10.8125 C5.52980897 14.69618893 6.25619229 17.52685601 8 21 C8.16015625 23.10546875 8.16015625 23.10546875 8.0625 25.1875 C8.041875 26.445625 8.02125 27.70375 8 29 C8.33 29.33 8.66 29.66 9 30 C9.08685603 31.56172745 9.10702219 33.12729344 9.09765625 34.69140625 C9.09443359 35.63564453 9.09121094 36.57988281 9.08789062 37.55273438 C9.07951172 38.54595703 9.07113281 39.53917969 9.0625 40.5625 C9.05798828 41.55958984 9.05347656 42.55667969 9.04882812 43.58398438 C9.03700007 46.05604849 9.02051849 48.52799518 9 51 C8.34 51 7.68 51 7 51 C5.85174923 48.70349847 5.81768003 47.23243831 5.71875 44.67578125 C5.66267578 43.37930664 5.66267578 43.37930664 5.60546875 42.05664062 C5.57066406 41.15107422 5.53585938 40.24550781 5.5 39.3125 C5.21687184 30.60635113 5.21687184 30.60635113 4 22 C3.34 21.67 2.68 21.34 2 21 C1.5859375 18.05859375 1.5859375 18.05859375 1.375 14.4375 C1.30023438 13.23996094 1.22546875 12.04242188 1.1484375 10.80859375 C1.09945312 9.88175781 1.05046875 8.95492187 1 8 C0.34 8 -0.32 8 -1 8 C-1.04241723 5.66705225 -1.04092937 3.33297433 -1 1 C-0.67 0.67 -0.34 0.34 0 0 Z " fill="#E6333A" transform="translate(232,111)"/>
<path d="M0 0 C1.65 0 3.3 0 5 0 C5 0.66 5 1.32 5 2 C5.7113208 2.01458252 6.4226416 2.02916504 7.15551758 2.04418945 C10.37506332 2.11861006 13.59356518 2.21529 16.8125 2.3125 C17.93205078 2.33505859 19.05160156 2.35761719 20.20507812 2.38085938 C21.81479492 2.4340332 21.81479492 2.4340332 23.45703125 2.48828125 C24.44678955 2.51446533 25.43654785 2.54064941 26.45629883 2.56762695 C29.32481958 3.05521216 30.23094912 3.74871895 32 6 C29.50609566 8.49390434 27.99742164 8.2573528 24.59008789 8.27783203 C23.87973389 8.26864746 23.16937988 8.25946289 22.4375 8.25 C21.71747803 8.24468262 20.99745605 8.23936523 20.25561523 8.23388672 C14.92667593 8.13914469 10.11045524 7.61382797 5 6 C4.67 5.34 4.34 4.68 4 4 C1.98330173 2.86649466 1.98330173 2.86649466 0 2 C0 1.34 0 0.68 0 0 Z " fill="#DE4043" transform="translate(192,87)"/>
<path d="M0 0 C0.61875 0.66 1.2375 1.32 1.875 2 C3.75637427 4.2284549 3.75637427 4.2284549 6 4 C5.67 6.64 5.34 9.28 5 12 C3.68 11.34 2.36 10.68 1 10 C1 10.66 1 11.32 1 12 C0.01 12.495 0.01 12.495 -1 13 C-1 27.85 -1 42.7 -1 58 C-1.33 58 -1.66 58 -2 58 C-3.62721712 49.69532464 -4.35366872 41.70795604 -4.3125 33.25 C-4.31048584 32.12126465 -4.30847168 30.9925293 -4.30639648 29.82958984 C-4.19994866 20.91219464 -3.18927241 12.64365582 -1 4 C-0.80277344 3.20335938 -0.60554688 2.40671875 -0.40234375 1.5859375 C-0.26957031 1.06257813 -0.13679688 0.53921875 0 0 Z " fill="#D15053" transform="translate(81,124)"/>
<path d="M0 0 C4.55104945 0.52320459 7.14829311 2.30281378 10.75 5.0625 C13.59338978 7.64291363 13.59338978 7.64291363 17 9 C17.33 8.34 17.66 7.68 18 7 C18.24234375 7.67546875 18.4846875 8.3509375 18.734375 9.046875 C21.19836927 15.78469251 21.19836927 15.78469251 26 21 C25.34 21.33 24.68 21.66 24 22 C21.93701172 21.19555664 21.93701172 21.19555664 19.4296875 19.91015625 C18.53378906 19.45576172 17.63789063 19.00136719 16.71484375 18.53320312 C15.77769531 18.04787109 14.84054688 17.56253906 13.875 17.0625 C12.45767578 16.34030273 12.45767578 16.34030273 11.01171875 15.60351562 C8.67075774 14.40938905 6.33383736 13.20797401 4 12 C4.66 11.67 5.32 11.34 6 11 C6.33 10.34 6.66 9.68 7 9 C11.455 10.98 11.455 10.98 16 13 C11.36044253 8.77468873 6.89697681 5.09785961 1.46875 1.9453125 C0.74171875 1.47738281 0.74171875 1.47738281 0 1 C0 0.67 0 0.34 0 0 Z " fill="#FBE4DF" transform="translate(122,217)"/>
<path d="M0 0 C1.22482422 3.67447267 0.59143698 5.11945724 -0.4296875 8.81640625 C-2.17248607 15.96307002 -2.31345657 22.61637192 -2.125 29.9375 C-2.08145678 32.27986891 -2.04224186 34.62232315 -2.0078125 36.96484375 C-1.98348145 37.9818335 -1.95915039 38.99882324 -1.93408203 40.04663086 C-2.00265139 43.11879188 -2.42466104 45.98494319 -3 49 C-3.33 49 -3.66 49 -4 49 C-4.90482048 43.61804014 -5.13304442 38.4553068 -5.09765625 33.00390625 C-5.0962413 32.17036118 -5.09482635 31.3368161 -5.09336853 30.47801208 C-5.08781168 27.83947014 -5.0752674 25.20101591 -5.0625 22.5625 C-5.05747942 20.76367311 -5.05291749 18.96484487 -5.04882812 17.16601562 C-5.03785643 12.77731042 -5.02062196 8.38867004 -5 4 C-4.01 3.67 -3.02 3.34 -2 3 C-2 2.34 -2 1.68 -2 1 C-1.34 0.67 -0.68 0.34 0 0 Z " fill="#E63239" transform="translate(84,133)"/>
<path d="M0 0 C1.875 1.5 1.875 1.5 3 3 C2.01 3 1.02 3 0 3 C-0.33 3.66 -0.66 4.32 -1 5 C-2.65071396 6.02611949 -4.31970006 7.02308143 -6 8 C-6.61875 8.53625 -7.2375 9.0725 -7.875 9.625 C-10.80538094 11.52112884 -13.56970509 11.67016395 -17 12 C-17.33 10.68 -17.66 9.36 -18 8 C-16.5665848 6.84906075 -15.12811091 5.70441965 -13.6875 4.5625 C-12.48673828 3.60537109 -12.48673828 3.60537109 -11.26171875 2.62890625 C-7.56228196 -0.03545496 -4.47066752 -0.37255563 0 0 Z " fill="#DC3F45" transform="translate(162,67)"/>
<path d="M0 0 C0 1.65 0 3.3 0 5 C-0.66 5 -1.32 5 -2 5 C-2.12375 5.7425 -2.2475 6.485 -2.375 7.25 C-2.99501929 9.97808487 -3.39942169 11.71478125 -5 14 C-7.828125 14.9765625 -7.828125 14.9765625 -11.25 15.625 C-15.64023482 16.48483862 -19.78008393 17.50384794 -24 19 C-19.9644571 14.29018933 -15.12370131 12.9818918 -9.41015625 10.953125 C-4.98274283 8.77397991 -4.98274283 8.77397991 -1 1 C-11.395 1.99 -11.395 1.99 -22 3 C-22 2.34 -22 1.68 -22 1 C-18.89032417 -0.55483792 -15.54467818 -0.41921406 -12.125 -0.625 C-11.40441406 -0.6765625 -10.68382812 -0.728125 -9.94140625 -0.78125 C-6.44885852 -0.99993623 -3.33440481 -1.16966033 0 0 Z " fill="#F8EFD7" transform="translate(180,135)"/>
<path d="M0 0 C1.03833984 0.19916016 1.03833984 0.19916016 2.09765625 0.40234375 C10.40328679 1.90151553 18.58296855 2.56305028 27 3 C25.05174684 8.67915796 21.86928816 11.6203296 17 15 C13.73961445 16.58388048 10.44055963 17.86489733 7 19 C8.47692308 13.33846154 8.47692308 13.33846154 11.125 11.625 C11.74375 11.41875 12.3625 11.2125 13 11 C13 11.66 13 12.32 13 13 C13.66 13 14.32 13 15 13 C15.66 13 16.32 13 17 13 C16.67 11.35 16.34 9.7 16 8 C18.31 8 20.62 8 23 8 C22.67 7.01 22.34 6.02 22 5 C20.91460937 4.86722656 19.82921875 4.73445312 18.7109375 4.59765625 C17.26561678 4.41933746 15.82030474 4.24094831 14.375 4.0625 C13.66214844 3.97548828 12.94929688 3.88847656 12.21484375 3.79882812 C8.12408039 3.29217395 4.06157365 2.7110957 0 2 C0 1.34 0 0.68 0 0 Z " fill="#D8434A" transform="translate(256,207)"/>
<path d="M0 0 C2.29018595 3.43527893 3.10869109 6.73807832 4.0625 10.6875 C4.32256836 11.71133789 4.32256836 11.71133789 4.58789062 12.75585938 C6.89349997 22.11080303 7.15600158 31.08217792 7.125 40.6875 C7.12886719 41.89728516 7.13273438 43.10707031 7.13671875 44.35351562 C7.13542969 45.51947266 7.13414062 46.68542969 7.1328125 47.88671875 C7.13168457 48.94076904 7.13055664 49.99481934 7.12939453 51.08081055 C7.00757662 53.8290686 6.62105749 56.3248889 6 59 C5.67 59 5.34 59 5 59 C5.01160156 58.40058594 5.02320313 57.80117187 5.03515625 57.18359375 C5.10868737 49.79896849 4.86756427 42.4401929 4.5625 35.0625 C4.52326416 34.05566162 4.48402832 33.04882324 4.44360352 32.01147461 C4.40162842 31.04991455 4.35965332 30.08835449 4.31640625 29.09765625 C4.27974854 28.23664307 4.24309082 27.37562988 4.20532227 26.48852539 C3.99400881 23.92738615 3.53190411 21.51226307 3 19 C2.835 17.7625 2.67 16.525 2.5 15.25 C2.35168218 12.15456096 2.35168218 12.15456096 1 11 C0.76636119 9.15108054 0.58696365 7.29511969 0.4375 5.4375 C0.35371094 4.42558594 0.26992187 3.41367188 0.18359375 2.37109375 C0.12300781 1.58863281 0.06242188 0.80617188 0 0 Z " fill="#D45257" transform="translate(236,117)"/>
<path d="M0 0 C0.66 0.33 1.32 0.66 2 1 C1.15705284 9.23218614 1.15705284 9.23218614 0.4375 12.75 C-0.04168773 15.21439404 -0.02903103 17.49503681 0 20 C-0.53625 19.855625 -1.0725 19.71125 -1.625 19.5625 C-9.75997545 17.63579529 -17.69978825 17.81463547 -26 18 C-25.01 16.515 -25.01 16.515 -24 15 C-17.07 15.495 -17.07 15.495 -10 16 C-10 15.34 -10 14.68 -10 14 C-7.36 14.33 -4.72 14.66 -2 15 C-1.90912109 14.00419922 -1.90912109 14.00419922 -1.81640625 12.98828125 C-0.98418278 4.21792619 -0.98418278 4.21792619 0 0 Z " fill="#FDECEA" transform="translate(242,171)"/>
<path d="M0 0 C-1.36911804 3.1489715 -2.8752136 5.0478487 -5.5 7.25 C-6.1084375 7.77078125 -6.716875 8.2915625 -7.34375 8.828125 C-9 10 -9 10 -11 10 C-11 8.68 -11 7.36 -11 6 C-11.66 5.67 -12.32 5.34 -13 5 C-12.67 5.99 -12.34 6.98 -12 8 C-14.64 8.33 -17.28 8.66 -20 9 C-18.34808509 7.64843325 -16.67705908 6.320238 -15 5 C-14.46890625 4.54496094 -13.9378125 4.08992187 -13.390625 3.62109375 C-8.79436194 -0.07910885 -5.86218568 -0.51422681 0 0 Z " fill="#D7464B" transform="translate(212,225)"/>
<path d="M0 0 C0 0.66 0 1.32 0 2 C5.61 2 11.22 2 17 2 C17 2.33 17 2.66 17 3 C16.18660156 2.979375 15.37320313 2.95875 14.53515625 2.9375 C4.77658264 3.11313237 -1.92988839 5.84579848 -10.48046875 10.28515625 C-14 12 -14 12 -17 12 C-15.44233138 10.55726615 -13.87864043 9.12103292 -12.3125 7.6875 C-11.44238281 6.88699219 -10.57226562 6.08648437 -9.67578125 5.26171875 C-3.4507772 0 -3.4507772 0 0 0 Z " fill="#D34B50" transform="translate(196,219)"/>
<path d="M0 0 C0.33 0.66 0.66 1.32 1 2 C-1.40983607 6.70491803 -1.40983607 6.70491803 -4 8 C-4.309375 8.61875 -4.61875 9.2375 -4.9375 9.875 C-6.03717145 12.0743429 -7.27956352 13.27956352 -9 15 C-9.33 15.99 -9.66 16.98 -10 18 C-10.66 18 -11.32 18 -12 18 C-11.01 19.32 -10.02 20.64 -9 22 C-14.75 27 -14.75 27 -17 27 C-15.42863729 16.21652343 -7.34048676 7.5235828 0 0 Z " fill="#D6494C" transform="translate(197,200)"/>
<path d="M0 0 C0.66 0 1.32 0 2 0 C2 4.62 2 9.24 2 14 C3.5159375 12.5459375 3.5159375 12.5459375 5.0625 11.0625 C8.72781261 7.88340233 11.20682416 7.19563983 16 7 C15.01 7.66 14.02 8.32 13 9 C11.47083878 10.15572969 9.95064867 11.32338357 8.4375 12.5 C7.65246094 13.1084375 6.86742187 13.716875 6.05859375 14.34375 C3.94409297 15.98412214 3.94409297 15.98412214 2 18 C1.01 18 0.02 18 -1 18 C-1.66 19.32 -2.32 20.64 -3 22 C-3.05416188 20.39620659 -3.09286638 18.79188594 -3.125 17.1875 C-3.14820313 16.29417969 -3.17140625 15.40085938 -3.1953125 14.48046875 C-3 12 -3 12 -1 9 C-0.54605448 6.72087062 -0.54605448 6.72087062 -0.375 4.3125 C-0.30023438 3.50425781 -0.22546875 2.69601563 -0.1484375 1.86328125 C-0.09945312 1.24839844 -0.05046875 0.63351563 0 0 Z " fill="#FAF3E1" transform="translate(145,152)"/>
<path d="M0 0 C3.45053241 0.74154299 6.71039132 1.72660309 10 3 C10 3.99 10 4.98 10 6 C8.18706911 5.85962479 6.3746557 5.71255111 4.5625 5.5625 C3.04849609 5.44068359 3.04849609 5.44068359 1.50390625 5.31640625 C-1 5 -1 5 -2 4 C-4.52195967 3.60056824 -7.02963656 3.24920152 -9.5625 2.9375 C-10.27341797 2.84662109 -10.98433594 2.75574219 -11.71679688 2.66210938 C-13.47738403 2.43760497 -15.23863478 2.21831603 -17 2 C-11.91161695 -1.39225536 -5.94613326 -0.43600765 0 0 Z " fill="#FEE7E8" transform="translate(118,222)"/>
<path d="M0 0 C-7.43153482 3.83674588 -14.35105318 6.55850252 -22.80859375 6.04296875 C-25.06207224 5.9987829 -26.84912969 6.35816854 -29 7 C-28.67 6.01 -28.34 5.02 -28 4 C-27.34 4 -26.68 4 -26 4 C-26 3.34 -26 2.68 -26 2 C-24.81921875 1.93941406 -23.6384375 1.87882812 -22.421875 1.81640625 C-20.8645723 1.73197418 -19.30728121 1.64732751 -17.75 1.5625 C-16.97269531 1.52318359 -16.19539063 1.48386719 -15.39453125 1.44335938 C-14.64042969 1.40146484 -13.88632813 1.35957031 -13.109375 1.31640625 C-12.41811523 1.27974854 -11.72685547 1.24309082 -11.01464844 1.20532227 C-7.20082213 0.81663735 -3.90242711 -0.10840075 0 0 Z " fill="#E53338" transform="translate(123,89)"/>
<path d="M0 0 C3.94960116 1.49962781 5.4687403 3.72693688 7.6875 7.25 C8.28949219 8.18328125 8.89148438 9.1165625 9.51171875 10.078125 C11.06019927 13.1181865 11.62577511 15.62698634 12 19 C11.52691406 18.62488281 11.05382812 18.24976563 10.56640625 17.86328125 C5.62193225 14.03685595 0.53679445 10.89656376 -5 8 C-2 7 -2 7 0 7.9375 C0.66 8.288125 1.32 8.63875 2 9 C2.99 9 3.98 9 5 9 C3.99554337 6.75928906 3.12245015 5.12245015 1.375 3.375 C0.92125 2.92125 0.4675 2.4675 0 2 C0 1.34 0 0.68 0 0 Z " fill="#CF4146" transform="translate(128,209)"/>
<path d="M0 0 C0.99 0.66 1.98 1.32 3 2 C2.34 2 1.68 2 1 2 C0.67 2.99 0.34 3.98 0 5 C-1.65 5.33 -3.3 5.66 -5 6 C-5 6.66 -5 7.32 -5 8 C-7.64 8 -10.28 8 -13 8 C-13 8.66 -13 9.32 -13 10 C-15.97 10 -18.94 10 -22 10 C-22 9.34 -22 8.68 -22 8 C-18.535 7.505 -18.535 7.505 -15 7 C-15 6.67 -15 6.34 -15 6 C-13.88625 5.71125 -12.7725 5.4225 -11.625 5.125 C-7.99708908 4.30758671 -7.99708908 4.30758671 -6 2 C-3.0625 0.75 -3.0625 0.75 0 0 Z " fill="#E63337" transform="translate(179,241)"/>
<path d="M0 0 C0.78052734 -0.01224609 1.56105469 -0.02449219 2.36523438 -0.03710938 C4.39070035 -0.04235217 6.41572552 0.06515672 8.4375 0.1875 C9.0975 0.8475 9.7575 1.5075 10.4375 2.1875 C7.96460188 4.79055065 5.2585894 6.97092975 2.4375 9.1875 C1.509375 9.93 0.58125 10.6725 -0.375 11.4375 C-1.096875 12.015 -1.81875 12.5925 -2.5625 13.1875 C-3.2225 12.8575 -3.8825 12.5275 -4.5625 12.1875 C-3.99660156 11.70539063 -3.43070313 11.22328125 -2.84765625 10.7265625 C-1.74744141 9.77910156 -1.74744141 9.77910156 -0.625 8.8125 C0.10589844 8.18601563 0.83679688 7.55953125 1.58984375 6.9140625 C3.52130906 5.31002286 3.52130906 5.31002286 4.4375 3.1875 C2.1275 3.1875 -0.1825 3.1875 -2.5625 3.1875 C-2.5625 2.8575 -2.5625 2.5275 -2.5625 2.1875 C-4.2125 1.8575 -5.8625 1.5275 -7.5625 1.1875 C-7.8925 1.8475 -8.2225 2.5075 -8.5625 3.1875 C-9.5525 2.5275 -10.5425 1.8675 -11.5625 1.1875 C-7.6986104 -0.1004632 -4.02572278 0.00334085 0 0 Z " fill="#FADBD9" transform="translate(207.5625,221.8125)"/>
<path d="M0 0 C6.91133679 3.01762592 12.03377388 6.2937733 17 12 C16.01 12.495 16.01 12.495 15 13 C13.06743863 12.14075799 11.17676729 11.18629816 9.3125 10.1875 C4.88237102 7.88980374 0.85619473 6.10368062 -4 5 C-4 4.67 -4 4.34 -4 4 C-2.02 4 -0.04 4 2 4 C2 3.34 2 2.68 2 2 C1.34 2 0.68 2 0 2 C0 1.34 0 0.68 0 0 Z " fill="#D14B51" transform="translate(122,218)"/>
<path d="M0 0 C3.12321372 0.48800214 5.67445357 1.27326998 8.625 2.46875 C13.0443412 4.15079092 17.31381602 4.74487084 22 5.1875 C22.77472656 5.26935547 23.54945313 5.35121094 24.34765625 5.43554688 C26.23080183 5.63316092 28.11528577 5.81795374 30 6 C30 6.33 30 6.66 30 7 C22.57313685 7.10331031 15.36487404 6.99862699 8 6 C8 5.34 8 4.68 8 4 C6.35 4 4.7 4 3 4 C4.25541557 6.51083114 5.50063488 6.87125446 8 8 C4.37673261 9.2077558 3.35853631 8.54311128 0 7 C0.2784375 6.1028125 0.2784375 6.1028125 0.5625 5.1875 C1.22093687 2.83591238 1.22093687 2.83591238 0 0 Z " fill="#D64B4E" transform="translate(189,83)"/>
<path d="M0 0 C0.66 0 1.32 0 2 0 C4.55238961 6.48558015 7.05687937 12.989088 9.375 19.5625 C9.71273437 20.51253906 10.05046875 21.46257812 10.3984375 22.44140625 C11.02340327 25.09953989 10.91873292 26.46453578 10 29 C8 28 8 28 7.25390625 26.12988281 C7.02574219 25.32905273 6.79757813 24.52822266 6.5625 23.703125 C6.30726563 22.8265625 6.05203125 21.95 5.7890625 21.046875 C5.52867187 20.12390625 5.26828125 19.2009375 5 18.25 C4.48125796 16.44210696 3.9604836 14.63479561 3.4375 12.828125 C3.19257813 11.98056641 2.94765625 11.13300781 2.6953125 10.25976562 C1.99100483 7.8585705 1.99100483 7.8585705 0.8125 5.046875 C0 3 0 3 0 0 Z " fill="#FAC7C7" transform="translate(223,103)"/>
<path d="M0 0 C0.66 0.99 1.32 1.98 2 3 C1.06810009 6.10633303 -0.19193628 8.28790442 -2 11 C-2.70812814 13.32108669 -3.38024152 15.65377147 -4 18 C-4.66 18 -5.32 18 -6 18 C-6.33 20.64 -6.66 23.28 -7 26 C-7.66 26 -8.32 26 -9 26 C-9.33 26.99 -9.66 27.98 -10 29 C-9.28838467 18.80018025 -4.24102175 9.16913641 0 0 Z " fill="#D9585C" transform="translate(92,95)"/>
<path d="M0 0 C-0.33 1.32 -0.66 2.64 -1 4 C0.65 4 2.3 4 4 4 C1.10414095 6.29648357 -1.8172031 8.04347557 -5.125 9.6875 C-6.42824219 10.34298828 -6.42824219 10.34298828 -7.7578125 11.01171875 C-10 12 -10 12 -12 12 C-12 11.34 -12 10.68 -12 10 C-10.35 9.34 -8.7 8.68 -7 8 C-7 7.01 -7 6.02 -7 5 C-8.98 5.33 -10.96 5.66 -13 6 C-10.65890118 4.43926745 -8.43666597 3.13626133 -5.9375 1.875 C-5.24527344 1.52179688 -4.55304688 1.16859375 -3.83984375 0.8046875 C-2 0 -2 0 0 0 Z " fill="#D8444A" transform="translate(186,237)"/>
<path d="M0 0 C-2.39509338 2.89932357 -4.31245243 3.50168276 -8 4 C-8 4.33 -8 4.66 -8 5 C-10.64 5 -13.28 5 -16 5 C-16 5.66 -16 6.32 -16 7 C-18.97 6.505 -18.97 6.505 -22 6 C-22 5.01 -22 4.02 -22 3 C-18.67129786 2.41747712 -15.35848412 1.92418291 -12 1.5625 C-9.29683178 1.24661253 -7.25811962 0.75270654 -4.625 -0.125 C-2 -1 -2 -1 0 0 Z " fill="#DF3640" transform="translate(173,244)"/>
<path d="M0 0 C1.48886719 0.39832031 1.48886719 0.39832031 3.0078125 0.8046875 C11.13571809 2.93148443 19.03796762 4.58367624 27.40234375 5.5078125 C28.25957031 5.67023438 29.11679688 5.83265625 30 6 C30.33 6.66 30.66 7.32 31 8 C23.69620926 8.62248217 17.38299339 7.86152807 10.4375 5.6875 C9.74720703 5.47456299 9.05691406 5.26162598 8.34570312 5.04223633 C4.90885812 3.90129557 2.26002492 2.90818301 0 0 Z " fill="#BF5C63" transform="translate(186,91)"/>
<path d="M0 0 C0.33 0.99 0.66 1.98 1 3 C3.31 3 5.62 3 8 3 C7.67 3.66 7.34 4.32 7 5 C11.29 5.33 15.58 5.66 20 6 C20 6.33 20 6.66 20 7 C18.94941406 7.04898438 17.89882812 7.09796875 16.81640625 7.1484375 C9.34124509 7.53376426 2.26403803 8.05427553 -5 10 C-4.1328125 8.046875 -4.1328125 8.046875 -3 6 C-0.875 5.25 -0.875 5.25 1 5 C0.67 3.35 0.34 1.7 0 0 Z " fill="#FCD7D6" transform="translate(79,182)"/>
<path d="M0 0 C3.73487777 0.4979837 5.81237635 0.87491756 9 3 C10.94288114 2.64999698 10.94288114 2.64999698 13 2 C14.58211573 1.93451508 16.16670081 1.91421619 17.75 1.9375 C18.54921875 1.94652344 19.3484375 1.95554688 20.171875 1.96484375 C20.77515625 1.97644531 21.3784375 1.98804688 22 2 C17.59001506 6.04248619 12.31237105 6.91741532 6.5 7.125 C5.675 7.08375 4.85 7.0425 4 7 C4 5.35 4 3.7 4 2 C2.68 1.34 1.36 0.68 0 0 Z " fill="#D63B43" transform="translate(52,224)"/>
<path d="M0 0 C0.04254356 1.99954746 0.04080783 4.00041636 0 6 C-0.33 6.33 -0.66 6.66 -1 7 C-1.07179964 8.51928038 -1.08392007 10.04167482 -1.0625 11.5625 C-1.05347656 12.38878906 -1.04445313 13.21507813 -1.03515625 14.06640625 C-1.02355469 14.70449219 -1.01195313 15.34257813 -1 16 C-1.99 16 -2.98 16 -4 16 C-4.33 16.66 -4.66 17.32 -5 18 C-7.125 12.375 -7.125 12.375 -6 9 C-5.34 9 -4.68 9 -4 9 C-3.87625 7.700625 -3.7525 6.40125 -3.625 5.0625 C-3.4140625 2.84765625 -3.4140625 2.84765625 -3 1 C-1 0 -1 0 0 0 Z " fill="#E7353B" transform="translate(89,112)"/>
<path d="M0 0 C0.66 0.33 1.32 0.66 2 1 C1.01 1.33 0.02 1.66 -1 2 C-1.33 2.99 -1.66 3.98 -2 5 C-2.66 5 -3.32 5 -4 5 C-4 5.66 -4 6.32 -4 7 C-1.03 7 1.94 7 5 7 C4.01 7.495 4.01 7.495 3 8 C3 8.66 3 9.32 3 10 C1.56163249 9.88541307 0.12429034 9.75790884 -1.3125 9.625 C-2.51326172 9.52058594 -2.51326172 9.52058594 -3.73828125 9.4140625 C-6 9 -6 9 -9 7 C-9 6.01 -9 5.02 -9 4 C-7.54618103 3.30300448 -6.08677047 2.61766134 -4.625 1.9375 C-3.40683594 1.36322266 -3.40683594 1.36322266 -2.1640625 0.77734375 C-1.44992188 0.52082031 -0.73578125 0.26429688 0 0 Z " fill="#DC545B" transform="translate(72,193)"/>
<path d="M0 0 C8.19256018 -0.63019694 8.19256018 -0.63019694 11.5625 2 C12.036875 2.66 12.51125 3.32 13 4 C12.01 4.33 11.02 4.66 10 5 C9.26676204 7.01508358 9.26676204 7.01508358 9 9 C2.07692308 4.53846154 2.07692308 4.53846154 0 2 C0 1.34 0 0.68 0 0 Z " fill="#DD434D" transform="translate(107,225)"/>
<path d="M0 0 C4.95 0 9.9 0 15 0 C15.33 0.66 15.66 1.32 16 2 C14.7934375 2.433125 14.7934375 2.433125 13.5625 2.875 C10.8673532 3.73262568 10.8673532 3.73262568 10 6 C6.20696275 4.99806563 3.28463659 4.18975773 0 2 C0 1.34 0 0.68 0 0 Z " fill="#D83D41" transform="translate(139,201)"/>
<path d="M0 0 C0.61875 0.66 1.2375 1.32 1.875 2 C3.75637427 4.2284549 3.75637427 4.2284549 6 4 C5.67 6.64 5.34 9.28 5 12 C3.68 11.34 2.36 10.68 1 10 C1 10.66 1 11.32 1 12 C0.01 12.495 0.01 12.495 -1 13 C-1.66 13.99 -2.32 14.98 -3 16 C-2.30834212 10.58201328 -1.24200752 5.3177215 0 0 Z " fill="#DE4C51" transform="translate(81,124)"/>
<path d="M0 0 C-0.51949219 0.21914062 -1.03898437 0.43828125 -1.57421875 0.6640625 C-7.80309296 3.49641565 -11.40206655 6.49976483 -14.3125 12.875 C-14.539375 13.57625 -14.76625 14.2775 -15 15 C-15.99 14.01 -16.98 13.02 -18 12 C-19.98 12.99 -19.98 12.99 -22 14 C-22.66 13.34 -23.32 12.68 -24 12 C-23.45472656 11.72027344 -22.90945312 11.44054687 -22.34765625 11.15234375 C-17.09205178 8.35833864 -12.46922129 5.20254285 -7.84765625 1.453125 C-4.79849842 -0.94494416 -3.65633169 -1.09689951 0 0 Z " fill="#FCE1DF" transform="translate(94,216)"/>
<path d="M0 0 C-7.22244402 4.81496268 -17.38049927 6.72195159 -26 7 C-28.2421875 6.0078125 -28.2421875 6.0078125 -30 5 C-28.19015625 4.72736328 -28.19015625 4.72736328 -26.34375 4.44921875 C-24.72909702 4.19575578 -23.11451751 3.94182447 -21.5 3.6875 C-20.31277344 3.51057617 -20.31277344 3.51057617 -19.1015625 3.33007812 C-15.07176861 2.68597172 -11.44305698 1.87503215 -7.65625 0.33203125 C-4.02438478 -0.99111623 -3.40023594 -1.11950987 0 0 Z " fill="#FCBDC1" transform="translate(134,90)"/>
<path d="M0 0 C1.65 0 3.3 0 5 0 C5 0.66 5 1.32 5 2 C5.61488281 1.96519531 6.22976562 1.93039063 6.86328125 1.89453125 C7.67152344 1.86746094 8.47976562 1.84039062 9.3125 1.8125 C10.51326172 1.76029297 10.51326172 1.76029297 11.73828125 1.70703125 C14.48924414 2.06337359 15.32224589 2.84443889 17 5 C17 5.33 17 5.66 17 6 C4.54793609 6.21105193 4.54793609 6.21105193 0 2 C0 1.34 0 0.68 0 0 Z " fill="#E73338" transform="translate(192,87)"/>
<path d="M0 0 C2.64 0.33 5.28 0.66 8 1 C8 1.66 8 2.32 8 3 C9.134375 3.268125 10.26875 3.53625 11.4375 3.8125 C12.613125 4.204375 13.78875 4.59625 15 5 C15.33 5.99 15.66 6.98 16 8 C14.41642541 7.68872484 12.83315007 7.37592711 11.25 7.0625 C10.36828125 6.88847656 9.4865625 6.71445313 8.578125 6.53515625 C6.36764947 6.07631512 4.18487932 5.56663926 2 5 C2 4.01 2 3.02 2 2 C1.34 2 0.68 2 0 2 C0 1.34 0 0.68 0 0 Z " fill="#E43438" transform="translate(133,239)"/>
<path d="M0 0 C4.55104945 0.52320459 7.14829311 2.30281378 10.75 5.0625 C13.59338978 7.64291363 13.59338978 7.64291363 17 9 C17.33 8.34 17.66 7.68 18 7 C19 8 19 8 19.0625 11.5625 C19.041875 12.696875 19.02125 13.83125 19 15 C15.73736021 13.9124534 15.37811956 13.43668107 13.4375 10.8125 C10.20068135 6.83817836 6.42809684 4.61962864 1.9765625 2.1640625 C1.32429688 1.77992188 0.67203125 1.39578125 0 1 C0 0.67 0 0.34 0 0 Z " fill="#F1AAAC" transform="translate(122,217)"/>
<path d="M0 0 C0.66 0.33 1.32 0.66 2 1 C1.4225 1.515625 0.845 2.03125 0.25 2.5625 C-2.46936119 5.50847463 -4.10156592 8.47433671 -6 12 C-4.783125 11.690625 -3.56625 11.38125 -2.3125 11.0625 C0.7782972 10.28842823 3.86734334 9.58737312 7 9 C1.78075939 13.10083191 -1.22419899 14.26060773 -8 14 C-7.84036991 7.61479646 -4.21875117 4.33991635 0 0 Z " fill="#D34C52" transform="translate(87,218)"/>
<path d="M0 0 C0.33 0 0.66 0 1 0 C1 4.62 1 9.24 1 14 C1.99 13.34 2.98 12.68 4 12 C6.6875 11.875 6.6875 11.875 9 12 C8.01 12.66 7.02 13.32 6 14 C3.236282 16.25609633 0.52333763 18.47666237 -2 21 C-2.22424141 13.63740707 -1.90120099 7.12950371 0 0 Z " fill="#CBB384" transform="translate(148,147)"/>
<path d="M0 0 C0.33 1.32 0.66 2.64 1 4 C1.66 4 2.32 4 3 4 C2.67 5.98 2.34 7.96 2 10 C-0.31 10 -2.62 10 -5 10 C-4.01 9.34 -3.02 8.68 -2 8 C-7.28 8 -12.56 8 -18 8 C-18.33 7.34 -18.66 6.68 -19 6 C-13.06 6 -7.12 6 -1 6 C-0.67 4.02 -0.34 2.04 0 0 Z " fill="#DA5C5E" transform="translate(156,194)"/>
<path d="M0 0 C0 0.33 0 0.66 0 1 C-0.64026123 0.98952637 -1.28052246 0.97905273 -1.94018555 0.96826172 C-4.85591671 0.92655185 -7.77158495 0.90062637 -10.6875 0.875 C-11.69490234 0.85824219 -12.70230469 0.84148437 -13.74023438 0.82421875 C-14.71669922 0.81777344 -15.69316406 0.81132812 -16.69921875 0.8046875 C-17.59471436 0.79421387 -18.49020996 0.78374023 -19.4128418 0.77294922 C-22.080205 0.87089945 -22.080205 0.87089945 -24.64379883 2.13720703 C-25.42134521 2.42192871 -26.1988916 2.70665039 -27 3 C-27.99 2.34 -28.98 1.68 -30 1 C-19.85376005 -2.77116883 -10.3604482 -3.18783022 0 0 Z " fill="#D75157" transform="translate(240,190)"/>
<path d="M0 0 C0.33 0 0.66 0 1 0 C1.02505615 0.589021 1.0501123 1.17804199 1.07592773 1.78491211 C1.19332361 4.50258671 1.31538715 7.22003342 1.4375 9.9375 C1.47681641 10.86369141 1.51613281 11.78988281 1.55664062 12.74414062 C1.79314419 17.92902637 2.18423298 22.99802049 2.99633789 28.12719727 C3 30 3 30 1 33 C-1.03845191 25.6008864 -1.0848969 19.06718957 -0.625 11.4375 C-0.56828125 10.33341797 -0.5115625 9.22933594 -0.453125 8.09179688 C-0.31296674 5.3937504 -0.16170093 2.69682644 0 0 Z " fill="#EDB9B4" transform="translate(85,152)"/>
<path d="M0 0 C-0.66 1.65 -1.32 3.3 -2 5 C-2.33 4.01 -2.66 3.02 -3 2 C-4.64548828 2.2165625 -4.64548828 2.2165625 -6.32421875 2.4375 C-7.77862452 2.62516526 -9.23305281 2.81265606 -10.6875 3 C-11.40873047 3.09539062 -12.12996094 3.19078125 -12.87304688 3.2890625 C-16.60992871 3.76683735 -20.22291531 4.11919794 -24 4 C-18.65911917 -1.34088083 -7.15446205 -0.28491221 0 0 Z " fill="#CAB37E" transform="translate(179,136)"/>
<path d="M0 0 C-0.99 0 -1.98 0 -3 0 C-3.33 0.66 -3.66 1.32 -4 2 C-7.33445223 2.31756688 -10.6480713 2.38008515 -13.99609375 2.4609375 C-15.48302734 2.72777344 -15.48302734 2.72777344 -17 3 C-18.34384446 4.89541029 -18.34384446 4.89541029 -19 7 C-21.125 8.25 -21.125 8.25 -23 9 C-21.5269638 3.35336124 -21.5269638 3.35336124 -19.328125 1.87890625 C-16.40488991 0.77533596 -13.58843964 0.28355788 -10.5 -0.1875 C-9.3759375 -0.36667969 -8.251875 -0.54585938 -7.09375 -0.73046875 C-4.33089488 -0.97117204 -2.58651581 -0.89386944 0 0 Z " fill="#FCE2E1" transform="translate(121,98)"/>
<path d="M0 0 C0.99 0.33 1.98 0.66 3 1 C5.3555448 1.15179014 7.71475123 1.24899289 10.07421875 1.31640625 C10.7580513 1.33718735 11.44188385 1.35796844 12.1464386 1.37937927 C14.3266921 1.44466154 16.50706405 1.50366017 18.6875 1.5625 C20.16732986 1.60570553 21.64714783 1.64932047 23.12695312 1.69335938 C26.75117622 1.80032083 30.37553189 1.90164823 34 2 C34 2.33 34 2.66 34 3 C22.45 3 10.9 3 -1 3 C-1.33 3.99 -1.66 4.98 -2 6 C-1.125 1.125 -1.125 1.125 0 0 Z " fill="#C8AC78" transform="translate(142,122)"/>
<path d="M0 0 C0.92941406 0.34933594 1.85882813 0.69867188 2.81640625 1.05859375 C4.67072266 1.74115234 4.67072266 1.74115234 6.5625 2.4375 C8.38974609 3.11619141 8.38974609 3.11619141 10.25390625 3.80859375 C13.93350333 4.97885142 17.18299666 5.57261353 21 6 C21 6.33 21 6.66 21 7 C12.71766795 9.31905297 6.34251524 5.55781988 -1 2 C-0.67 1.34 -0.34 0.68 0 0 Z " fill="#F7C7C6" transform="translate(141,238)"/>
<path d="M0 0 C0.66 0.33 1.32 0.66 2 1 C2.40729228 3.32156597 2.74438677 5.6568787 3 8 C-2.26053037 8.31563182 -5.44573816 7.66590937 -10 5 C-6.61981469 3.95994298 -3.5219721 3.91995518 0 4 C0 2.68 0 1.36 0 0 Z " fill="#D54C52" transform="translate(237,224)"/>
<path d="M0 0 C2.05078125 0.03255208 4.1015625 0.06510417 6.15234375 0.09765625 C1.88551474 4.17897096 -4.11522416 5.09765625 -9.84765625 5.09765625 C-9.84765625 4.10765625 -9.84765625 3.11765625 -9.84765625 2.09765625 C-8.71328125 1.95328125 -7.57890625 1.80890625 -6.41015625 1.66015625 C-3.51115113 1.2024186 -2.54328457 0.13442307 0 0 Z " fill="#FEEFEF" transform="translate(201.84765625,222.90234375)"/>
<path d="M0 0 C0.66 0.33 1.32 0.66 2 1 C1.11957031 1.60328125 0.23914063 2.2065625 -0.66796875 2.828125 C-1.84121394 3.63531769 -3.0143872 4.44261492 -4.1875 5.25 C-5.0547168 5.84361328 -5.0547168 5.84361328 -5.93945312 6.44921875 C-9.40714292 8.83937782 -12.74213963 11.324996 -16 14 C-16.33 13.01 -16.66 12.02 -17 11 C-16.34 10.01 -15.68 9.02 -15 8 C-15 8.66 -15 9.32 -15 10 C-14.25234375 9.44570312 -13.5046875 8.89140625 -12.734375 8.3203125 C-11.74953125 7.59585938 -10.7646875 6.87140625 -9.75 6.125 C-8.77546875 5.40570313 -7.8009375 4.68640625 -6.796875 3.9453125 C-2.51830627 0.96943649 -2.51830627 0.96943649 0 0 Z " fill="#FEB9B9" transform="translate(195,217)"/>
<path d="M0 0 C1.37562854 1.28965176 2.70766393 2.62689293 4 4 C4 4.66 4 5.32 4 6 C3.27554688 5.86722656 2.55109375 5.73445312 1.8046875 5.59765625 C-3.12491105 4.69718291 -8.05322123 3.80218034 -13 3 C-13 2.67 -13 2.34 -13 2 C-8.71 2 -4.42 2 0 2 C0 1.34 0 0.68 0 0 Z " fill="#CFB586" transform="translate(201,184)"/>
<path d="M0 0 C0.56847656 0.28875 1.13695312 0.5775 1.72265625 0.875 C7.03122625 3.49741537 12.47874954 5.86274176 18 8 C17.67 8.66 17.34 9.32 17 10 C11.00067626 8.1668733 5.55079437 5.92678249 0 3 C0 2.01 0 1.02 0 0 Z " fill="#F8C6C3" transform="translate(176,83)"/>
<path d="M0 0 C0.66 0.33 1.32 0.66 2 1 C0.83348574 6.92863717 -0.75519358 12.38798394 -3 18 C-3.33 18 -3.66 18 -4 18 C-4.04241723 15.66705225 -4.04092937 13.33297433 -4 11 C-3.67 10.67 -3.34 10.34 -3 10 C-2.855625 8.88625 -2.71125 7.7725 -2.5625 6.625 C-2 3 -2 3 0 0 Z " fill="#D64144" transform="translate(91,108)"/>
<path d="M0 0 C1.61725534 3.00950123 2.67582623 5.97103608 3.625 9.25 C3.88539063 10.14203125 4.14578125 11.0340625 4.4140625 11.953125 C4.60742188 12.62859375 4.80078125 13.3040625 5 14 C3.06640625 13.6796875 3.06640625 13.6796875 1 13 C0.26919734 11.02253397 -0.39421747 9.01927511 -1 7 C-2.49886871 5.16310524 -2.49886871 5.16310524 -4 4 C-2.68 2.68 -1.36 1.36 0 0 Z " fill="#F8E5D9" transform="translate(165,209)"/>
<path d="M0 0 C2.97 0.99 5.94 1.98 9 3 C8.67 4.32 8.34 5.64 8 7 C5.03 7.66 2.06 8.32 -1 9 C-1 8.34 -1 7.68 -1 7 C1 5.375 1 5.375 3 4 C2.01 3.34 1.02 2.68 0 2 C0 1.34 0 0.68 0 0 Z " fill="#D65254" transform="translate(248,194)"/>
<path d="M0 0 C3.01527738 1.40577121 5.5947941 3.06126148 8.25 5.0625 C8.95640625 5.58972656 9.6628125 6.11695313 10.390625 6.66015625 C11.18726563 7.32337891 11.18726563 7.32337891 12 8 C12 8.33 12 8.66 12 9 C10.35 9 8.7 9 7 9 C6.67 10.32 6.34 11.64 6 13 C5.566875 11.783125 5.13375 10.56625 4.6875 9.3125 C3.43798371 5.96260633 1.96876433 3.00002183 0 0 Z " fill="#FDE7E1" transform="translate(234,219)"/>
<path d="M0 0 C2.97 0 5.94 0 9 0 C7 2 7 2 4.125 2.0625 C0.89932515 2.65438606 0.89932515 2.65438606 -0.28125 5.0625 C-1.28266854 7.35145665 -2.18861981 9.6374518 -3 12 C-3.88336837 9.5332355 -4.1312406 8.36140628 -3.22265625 5.859375 C-2.1484375 3.90625 -1.07421875 1.953125 0 0 Z " fill="#FDD6D4" transform="translate(99,96)"/>
<path d="M0 0 C0 1.65 0 3.3 0 5 C-2.97 4.505 -2.97 4.505 -6 4 C-6.33 2.68 -6.66 1.36 -7 0 C-4.3333581 -1.33332095 -2.83319697 -0.67102033 0 0 Z " fill="#EB3236" transform="translate(235,224)"/>
<path d="M0 0 C1.98 0 3.96 0 6 0 C6 0.99 6 1.98 6 3 C8.97 3.99 11.94 4.98 15 6 C15 6.33 15 6.66 15 7 C12.03 7 9.06 7 6 7 C5.67 5.35 5.34 3.7 5 2 C3.35 1.67 1.7 1.34 0 1 C0 0.67 0 0.34 0 0 Z " fill="#DE3C41" transform="translate(241,200)"/>
<path d="M0 0 C1.30078125 1.92578125 1.30078125 1.92578125 2.3125 4.3125 C2.65925781 5.09238281 3.00601563 5.87226562 3.36328125 6.67578125 C4.06437764 9.23499813 3.87573233 10.53099982 3 13 C0.77174356 10.77174356 0.30760631 9.34238372 -0.625 6.375 C-0.88539063 5.55773437 -1.14578125 4.74046875 -1.4140625 3.8984375 C-1.60742188 3.27195312 -1.80078125 2.64546875 -2 2 C-4.31 1.67 -6.62 1.34 -9 1 C-9 0.67 -9 0.34 -9 0 C-5.63727163 -0.84068209 -3.25550088 -1.31509342 0 0 Z " fill="#C96E78" transform="translate(221,99)"/>
<path d="M0 0 C-1.24853673 0.79397239 -2.49890043 1.58507217 -3.75 2.375 C-4.44609375 2.81585938 -5.1421875 3.25671875 -5.859375 3.7109375 C-11.32121212 7 -11.32121212 7 -15 7 C-15 6.34 -15 5.68 -15 5 C-13.06891037 3.96709159 -11.129882 2.94901328 -9.1875 1.9375 C-8.10855469 1.36902344 -7.02960938 0.80054687 -5.91796875 0.21484375 C-3 -1 -3 -1 0 0 Z " fill="#FDD9D8" transform="translate(148,83)"/>
<path d="M0 0 C0.33 0.99 0.66 1.98 1 3 C-0.26572233 4.15147661 -1.53777906 5.29599314 -2.8125 6.4375 C-3.52019531 7.07558594 -4.22789062 7.71367188 -4.95703125 8.37109375 C-7 10 -7 10 -10 11 C-10.66 10.34 -11.32 9.68 -12 9 C-11.30132812 8.51789063 -10.60265625 8.03578125 -9.8828125 7.5390625 C-8.97273437 6.90742187 -8.06265625 6.27578125 -7.125 5.625 C-6.22007812 4.99851562 -5.31515625 4.37203125 -4.3828125 3.7265625 C-1.96505875 2.0701905 -1.96505875 2.0701905 0 0 Z " fill="#FCCFD3" transform="translate(158,72)"/>
<path d="M0 0 C0.8971875 0.6496875 0.8971875 0.6496875 1.8125 1.3125 C3.1367287 1.68034131 4.46863912 2.02452981 5.8125 2.3125 C3.5025 3.6325 1.1925 4.9525 -1.1875 6.3125 C-1.1875 4.9925 -1.1875 3.6725 -1.1875 2.3125 C-1.765 2.663125 -2.3425 3.01375 -2.9375 3.375 C-5.54551776 4.46167407 -6.58167629 4.24315133 -9.1875 3.3125 C-2.78341373 -0.87478717 -2.78341373 -0.87478717 0 0 Z " fill="#D84D54" transform="translate(145.1875,76.6875)"/>
<path d="M0 0 C1.03930664 0.02030273 1.03930664 0.02030273 2.09960938 0.04101562 C3.79591265 0.07611155 5.49181136 0.12991057 7.1875 0.1875 C7.1875 0.5175 7.1875 0.8475 7.1875 1.1875 C6.48625 1.21328125 5.785 1.2390625 5.0625 1.265625 C0.12513229 1.56079372 -3.91675659 1.93420599 -8.3125 4.3125 C-9.4675 4.93125 -10.6225 5.55 -11.8125 6.1875 C-12.8025 5.8575 -13.7925 5.5275 -14.8125 5.1875 C-10.22444161 0.59944161 -6.34879039 -0.2369405 0 0 Z " fill="#DA4F54" transform="translate(107.8125,220.8125)"/>
<path d="M0 0 C3.68646141 1.45855647 5.16143971 3.30229045 7.25 6.625 C8.03117188 7.85089844 8.03117188 7.85089844 8.828125 9.1015625 C9.21484375 9.72804687 9.6015625 10.35453125 10 11 C9.67 11.66 9.34 12.32 9 13 C7.02 12.34 5.04 11.68 3 11 C3.66 9.68 4.32 8.36 5 7 C4.175 6.21625 3.35 5.4325 2.5 4.625 C0 2 0 2 0 0 Z " fill="#DA4A50" transform="translate(128,209)"/>
<path d="M0 0 C0.33 0.66 0.66 1.32 1 2 C-0.57646551 3.32074115 -2.16145531 4.63131224 -3.75 5.9375 C-4.63171875 6.66839844 -5.5134375 7.39929688 -6.421875 8.15234375 C-8.76330955 9.83037185 -10.19661127 10.58735166 -13 11 C-11.33333333 9.33333333 -9.66666667 7.66666667 -8 6 C-6.700625 4.63875 -6.700625 4.63875 -5.375 3.25 C-3 1 -3 1 0 0 Z " fill="#F8F0DE" transform="translate(141,175)"/>
<path d="M0 0 C1.65 0 3.3 0 5 0 C5 0.66 5 1.32 5 2 C5.9590625 2.1546875 5.9590625 2.1546875 6.9375 2.3125 C7.618125 2.539375 8.29875 2.76625 9 3 C10.28317892 6.84953676 10.06643637 9.94738135 10 14 C9.67 14 9.34 14 9 14 C8.77957031 13.09507812 8.77957031 13.09507812 8.5546875 12.171875 C6.99496849 6.44650107 6.99496849 6.44650107 2.8125 2.5 C1.4203125 1.7575 1.4203125 1.7575 0 1 C0 0.67 0 0.34 0 0 Z " fill="#CEB684" transform="translate(176,125)"/>
<path d="M0 0 C0 0.66 0 1.32 0 2 C-3.96 2 -7.92 2 -12 2 C-12 2.66 -12 3.32 -12 4 C-12.66 4 -13.32 4 -14 4 C-14 4.66 -14 5.32 -14 6 C-14.66 6 -15.32 6 -16 6 C-15.375 3.5625 -15.375 3.5625 -14 1 C-9.4686718 -0.40255397 -4.70810451 -0.08117422 0 0 Z " fill="#D34D52" transform="translate(109,89)"/>
<path d="M0 0 C2.95183101 2.95183101 3.08663988 5.95511947 4 10 C2.68 9.01 1.36 8.02 0 7 C-0.33 7.99 -0.66 8.98 -1 10 C-1.66 10 -2.32 10 -3 10 C-2.69201674 8.51988629 -2.378482 7.04092675 -2.0625 5.5625 C-1.88847656 4.73878906 -1.71445313 3.91507813 -1.53515625 3.06640625 C-1 1 -1 1 0 0 Z " fill="#CF4F56" transform="translate(160,184)"/>
<path d="M0 0 C2.97 1.32 5.94 2.64 9 4 C8.01 4.99 7.02 5.98 6 7 C3.36 5.68 0.72 4.36 -2 3 C-1.34 2.67 -0.68 2.34 0 2 C0 1.34 0 0.68 0 0 Z " fill="#FBDAD5" transform="translate(128,226)"/>
<path d="M0 0 C1.875 1.5 1.875 1.5 3 3 C-0.73486879 3.5745952 -4.21293268 4 -8 4 C-8 3.01 -8 2.02 -8 1 C-5.20129973 -0.39935013 -3.09501208 -0.25265405 0 0 Z " fill="#EA3137" transform="translate(162,67)"/>
<path d="M0 0 C0.66 0.33 1.32 0.66 2 1 C1.55065113 3.12691797 1.09023527 5.25150039 0.625 7.375 C0.36976563 8.55835938 0.11453125 9.74171875 -0.1484375 10.9609375 C-1 14 -1 14 -3 16 C-3.5625 14.0625 -3.5625 14.0625 -4 12 C-3.67 11.67 -3.34 11.34 -3 11 C-2.855625 9.906875 -2.71125 8.81375 -2.5625 7.6875 C-2.08526936 4.55898801 -1.59539315 2.65898859 0 0 Z " fill="#FDE0DC" transform="translate(149,210)"/>
<path d="M0 0 C3.4375 0.8125 3.4375 0.8125 7 2 C7.33 2.99 7.66 3.98 8 5 C5 6 5 6 2 5 C2 4.34 2 3.68 2 3 C0.68 2.67 -0.64 2.34 -2 2 C-1.34 1.34 -0.68 0.68 0 0 Z " fill="#E33439" transform="translate(124,234)"/>
<path d="M0 0 C-0.51949219 0.21914062 -1.03898437 0.43828125 -1.57421875 0.6640625 C-6.75940232 3.02183544 -9.65077505 5.39481569 -13 10 C-13.66 9.01 -14.32 8.02 -15 7 C-13.5433323 5.85204994 -12.08461063 4.70670581 -10.625 3.5625 C-9.40683594 2.60537109 -9.40683594 2.60537109 -8.1640625 1.62890625 C-4.91493732 -0.81673491 -3.84911174 -1.15473352 0 0 Z " fill="#FB9795" transform="translate(94,216)"/>
<path d="M0 0 C2.47186455 2.96346786 3.66248361 5.54041689 4.6875 9.25 C4.93886719 10.14203125 5.19023437 11.0340625 5.44921875 11.953125 C5.72185547 12.96632813 5.72185547 12.96632813 6 14 C3 13 3 13 1 10 C0.5859375 7.51953125 0.5859375 7.51953125 0.375 4.8125 C0.30023438 3.91144531 0.22546875 3.01039062 0.1484375 2.08203125 C0.09945312 1.39496094 0.05046875 0.70789063 0 0 Z " fill="#D64C51" transform="translate(230,102)"/>
<path d="M0 0 C0 1.32 0 2.64 0 4 C-2.64 4.33 -5.28 4.66 -8 5 C-8.33 4.01 -8.66 3.02 -9 2 C-3.375 0 -3.375 0 0 0 Z " fill="#E4333A" transform="translate(144,79)"/>
<path d="M0 0 C3.37503669 1.1858237 5.64722731 2.27573689 8 5 C3.25 6.125 3.25 6.125 1 5 C1 4.34 1 3.68 1 3 C0.34 3 -0.32 3 -1 3 C-0.67 2.01 -0.34 1.02 0 0 Z " fill="#E73439" transform="translate(171,75)"/>
<path d="M0 0 C6.625 -0.125 6.625 -0.125 10 1 C10.6875 3.0625 10.6875 3.0625 11 5 C6.87248551 4.39301257 3.6678852 2.96189209 0 1 C0 0.67 0 0.34 0 0 Z " fill="#D94145" transform="translate(218,223)"/>
<path d="M0 0 C-1.1196986 1.00593243 -2.2459412 2.0045849 -3.375 3 C-4.00148438 3.556875 -4.62796875 4.11375 -5.2734375 4.6875 C-7 6 -7 6 -9 6 C-8.8125 3.625 -8.8125 3.625 -8 1 C-4.72494404 -0.89608503 -3.64512471 -1.21504157 0 0 Z " fill="#DA4344" transform="translate(85,219)"/>
<path d="M0 0 C1.98 0 3.96 0 6 0 C2.4912812 3.09592835 -0.49197399 4.74194623 -5 6 C-5.33 5.34 -5.66 4.68 -6 4 C-3 2 -3 2 0 2 C0 1.34 0 0.68 0 0 Z " fill="#D8474C" transform="translate(195,235)"/>
<path d="M0 0 C0.66 0.33 1.32 0.66 2 1 C1.01 1.33 0.02 1.66 -1 2 C-1.144375 2.804375 -1.28875 3.60875 -1.4375 4.4375 C-2 7 -2 7 -3 8 C-4.99958364 8.04080783 -7.00045254 8.04254356 -9 8 C-9 7.67 -9 7.34 -9 7 C-7.35 7 -5.7 7 -4 7 C-4 5.35 -4 3.7 -4 2 C-2.125 0.9375 -2.125 0.9375 0 0 Z " fill="#FCDAD9" transform="translate(267,224)"/>
<path d="M0 0 C4 8 4 8 4 12 C1.525 11.01 1.525 11.01 -1 10 C-0.67 6.7 -0.34 3.4 0 0 Z " fill="#D5C09B" transform="translate(171,216)"/>
<path d="M0 0 C0 1.65 0 3.3 0 5 C-2.35171131 4.40138258 -4.6859378 3.73075648 -7 3 C-7.33 2.34 -7.66 1.68 -8 1 C-5.10765685 0.17361624 -3.11257569 0 0 0 Z " fill="#FCDDDD" transform="translate(256,201)"/>
<path d="M0 0 C-1 2 -1 2 -4.1875 3.125 C-7.63749602 3.91680237 -10.484293 4.1714979 -14 4 C-11.58592302 2.39061535 -9.65955563 1.34509262 -7 0.3125 C-5.9790625 -0.09548828 -5.9790625 -0.09548828 -4.9375 -0.51171875 C-3 -1 -3 -1 0 0 Z " fill="#FDE7E7" transform="translate(136,93)"/>
<path d="M0 0 C2.875 0.25 2.875 0.25 6 1 C7.375 3.0625 7.375 3.0625 8 5 C7.01 5.33 6.02 5.66 5 6 C6.65 6 8.3 6 10 6 C10 6.33 10 6.66 10 7 C8.02 7 6.04 7 4 7 C4 5.35 4 3.7 4 2 C2.68 1.34 1.36 0.68 0 0 Z " fill="#D95960" transform="translate(52,224)"/>
<path d="M0 0 C-4.95 2.475 -4.95 2.475 -10 5 C-10 4.01 -10 3.02 -10 2 C-3.375 -1.125 -3.375 -1.125 0 0 Z " fill="#DA3F42" transform="translate(198,216)"/>
<path d="M0 0 C4.455 0.99 4.455 0.99 9 2 C6.3144406 4.6855594 3.62378672 5.06049974 0 6 C0 4 0 2 0 0 Z " fill="#FEEAE7" transform="translate(63,200)"/>
<path d="M0 0 C1.32 0 2.64 0 4 0 C4 0.66 4 1.32 4 2 C5.423125 2.2165625 5.423125 2.2165625 6.875 2.4375 C10 3 10 3 12 4 C12 4.66 12 5.32 12 6 C6.97734643 4.81819916 3.9050849 3.55007718 0 0 Z " fill="#D5444D" transform="translate(240,223)"/>
<path d="M0 0 C0.66 0.33 1.32 0.66 2 1 C1.030625 1.721875 0.06125 2.44375 -0.9375 3.1875 C-3.29913506 5.13237593 -3.93412331 5.7882535 -4.875 8.8125 C-4.91625 9.534375 -4.9575 10.25625 -5 11 C-5.66 10.67 -6.32 10.34 -7 10 C-7.4375 7.8125 -7.4375 7.8125 -7 5 C-4.86004673 3.01558218 -2.49824035 1.4976696 0 0 Z " fill="#F7EED7" transform="translate(177,205)"/>
<path d="M0 0 C1.48285242 0.95262034 2.96118201 1.91228405 4.4375 2.875 C5.67306641 3.67550781 5.67306641 3.67550781 6.93359375 4.4921875 C9 6 9 6 10 8 C7.6568787 7.74438677 5.32156597 7.40729228 3 7 C2.67 6.34 2.34 5.68 2 5 C1.34 4.34 0.68 3.68 0 3 C0 2.01 0 1.02 0 0 Z " fill="#FCE7E4" transform="translate(136,200)"/>
<path d="M0 0 C0.66 0.33 1.32 0.66 2 1 C1.91253716 2.43861294 1.80434652 3.87597508 1.6875 5.3125 C1.62949219 6.11300781 1.57148438 6.91351563 1.51171875 7.73828125 C0.91793306 10.36272334 0.04219706 11.30820672 -2 13 C-1.48041715 8.62065881 -0.94324258 4.31196609 0 0 Z " fill="#FCDCDC" transform="translate(242,171)"/>
<path d="M0 0 C0.33 0 0.66 0 1 0 C0.67 2.64 0.34 5.28 0 8 C-1.98 8.33 -3.96 8.66 -6 9 C-5.02501855 7.4972763 -4.04490611 5.99788037 -3.0625 4.5 C-2.51722656 3.6646875 -1.97195312 2.829375 -1.41015625 1.96875 C-0.94480469 1.3190625 -0.47945312 0.669375 0 0 Z " fill="#F9F1DD" transform="translate(196,144)"/>
<path d="M0 0 C2.31 0.33 4.62 0.66 7 1 C7 1.66 7 2.32 7 3 C7.9590625 3.1546875 7.9590625 3.1546875 8.9375 3.3125 C9.618125 3.539375 10.29875 3.76625 11 4 C11.33 4.99 11.66 5.98 12 7 C7.69235185 5.43358249 3.93828536 3.31663844 0 1 C0 0.67 0 0.34 0 0 Z " fill="#D34C4E" transform="translate(172,80)"/>
<path d="M0 0 C2.97 0 5.94 0 9 0 C9.33 0.66 9.66 1.32 10 2 C3.01886792 3.50943396 3.01886792 3.50943396 0 2 C0 1.34 0 0.68 0 0 Z " fill="#CE5960" transform="translate(107,225)"/>
<path d="M0 0 C5.02692063 0.45699278 8.14896261 2.99241748 12 6 C11.01 6.495 11.01 6.495 10 7 C7.6171875 5.8203125 7.6171875 5.8203125 4.875 4.125 C3.96492188 3.57070312 3.05484375 3.01640625 2.1171875 2.4453125 C1.41851562 1.96835938 0.71984375 1.49140625 0 1 C0 0.67 0 0.34 0 0 Z " fill="#FEB6B4" transform="translate(122,217)"/>
<path d="M0 0 C0.66 0 1.32 0 2 0 C1 3 1 3 -2.0625 4.6875 C-3.031875 5.120625 -4.00125 5.55375 -5 6 C-5 7.32 -5 8.64 -5 10 C-5.66 10 -6.32 10 -7 10 C-7 8.02 -7 6.04 -7 4 C-6.030625 3.525625 -5.06125 3.05125 -4.0625 2.5625 C-1.19522563 1.29806053 -1.19522563 1.29806053 0 0 Z " fill="#CAB17D" transform="translate(189,150)"/>
<path d="M0 0 C2.97 0 5.94 0 9 0 C8.01 0.33 7.02 0.66 6 1 C6.33 1.99 6.66 2.98 7 4 C4 4 4 4 1.8125 2 C1.214375 1.34 0.61625 0.68 0 0 Z " fill="#FED9DB" transform="translate(149,204)"/>
<path d="M0 0 C-0.99 0.33 -1.98 0.66 -3 1 C-3.33 1.99 -3.66 2.98 -4 4 C-4.66 4 -5.32 4 -6 4 C-6 4.66 -6 5.32 -6 6 C-6.99 5.67 -7.98 5.34 -9 5 C-7.93411431 2.09303901 -7.29651501 1.15567038 -4.5 -0.3125 C-2 -1 -2 -1 0 0 Z " fill="#DA4449" transform="translate(74,194)"/>
<path d="M0 0 C0.33 0 0.66 0 1 0 C1 2.31 1 4.62 1 7 C-0.98 7.99 -0.98 7.99 -3 9 C-3.25873987 5.89512156 -3.23307327 4.37494396 -1.5625 1.6875 C-1.046875 1.130625 -0.53125 0.57375 0 0 Z " fill="#E93037" transform="translate(92,102)"/>
<path d="M0 0 C3.625 0.375 3.625 0.375 7 1 C7 1.33 7 1.66 7 2 C6.236875 2.0825 5.47375 2.165 4.6875 2.25 C1.47626739 3.14615794 0.70625501 4.21611025 -1 7 C-1.625 4.625 -1.625 4.625 -2 2 C-1.34 1.34 -0.68 0.68 0 0 Z " fill="#DB474C" transform="translate(97,94)"/>
<path d="M0 0 C0.92538169 3.70152678 1.08174162 4.63458162 0 8 C0.66 8.33 1.32 8.66 2 9 C0.625 10.5 0.625 10.5 -1 12 C-1.66 12 -2.32 12 -3 12 C-2.01 8.04 -1.02 4.08 0 0 Z " fill="#CD5F68" transform="translate(149,216)"/>
<path d="M0 0 C2.31 1.98 4.62 3.96 7 6 C6.01 6.33 5.02 6.66 4 7 C4 6.34 4 5.68 4 5 C2.35 5 0.7 5 -1 5 C-0.67 3.35 -0.34 1.7 0 0 Z " fill="#D7484D" transform="translate(121,200)"/>
<path d="M0 0 C3.3 0 6.6 0 10 0 C10.33 0.99 10.66 1.98 11 3 C10.01 3.33 9.02 3.66 8 4 C8 3.34 8 2.68 8 2 C5.36 1.67 2.72 1.34 0 1 C0 0.67 0 0.34 0 0 Z " fill="#D2B174" transform="translate(168,202)"/>
<path d="M0 0 C0.66 0.99 1.32 1.98 2 3 C1.1025444 6.06630664 0.26961192 7.73038808 -2 10 C-2.17942163 6.05272412 -2.09350689 3.4019487 0 0 Z " fill="#E04A50" transform="translate(92,95)"/>
<path d="M0 0 C-1 1.5 -1 1.5 -3 3 C-5.71846235 3.27345479 -8.25677199 3.13491285 -11 3 C-3.71428571 -1.85714286 -3.71428571 -1.85714286 0 0 Z " fill="#D65052" transform="translate(173,244)"/>
<path d="M0 0 C0.33 0 0.66 0 1 0 C1 1.65 1 3.3 1 5 C1.99 5.33 2.98 5.66 4 6 C0.25 9 0.25 9 -2 9 C-1.34 6.03 -0.68 3.06 0 0 Z " fill="#FAC5C4" transform="translate(155,209)"/>
<path d="M0 0 C-3.6678852 1.96189209 -6.87248551 3.39301257 -11 4 C-7.39987093 0.15158617 -5.25169925 -1.6298377 0 0 Z " fill="#F4EBD1" transform="translate(161,160)"/>
<path d="M0 0 C-0.33 0.99 -0.66 1.98 -1 3 C-5.455 3.495 -5.455 3.495 -10 4 C-6.64877401 1.34213111 -4.39380802 0 0 0 Z " fill="#D9545B" transform="translate(134,82)"/>
<path d="M0 0 C1 3 1 3 0.3125 5.5625 C-1.16086774 8.29875437 -2.13522966 8.94958421 -5 10 C-3.66511872 6.40608886 -2.03977277 3.24509304 0 0 Z " fill="#D4515A" transform="translate(188,210)"/>
<path d="M0 0 C1.02104551 0.97850195 2.0206121 1.97980427 3 3 C3 3.33 3 3.66 3 4 C1.35 4 -0.3 4 -2 4 C-2.33 5.32 -2.66 6.64 -3 8 C-3.33 6.02 -3.66 4.04 -4 2 C-2.68 2 -1.36 2 0 2 C0 1.34 0 0.68 0 0 Z " fill="#F4DACD" transform="translate(165,196)"/>
<path d="M0 0 C0.66 1.32 1.32 2.64 2 4 C1.34 4 0.68 4 0 4 C0.33 5.65 0.66 7.3 1 9 C0.01 9.33 -0.98 9.66 -2 10 C-1.125 2.25 -1.125 2.25 0 0 Z " fill="#FADFDF" transform="translate(92,124)"/>
<path d="M0 0 C2.97 0.99 5.94 1.98 9 3 C8.34 3.66 7.68 4.32 7 5 C4.875 4.625 4.875 4.625 3 4 C3 3.34 3 2.68 3 2 C2.01 2 1.02 2 0 2 C0 1.34 0 0.68 0 0 Z " fill="#FBE4DC" transform="translate(141,247)"/>
<path d="M0 0 C0.99 0 1.98 0 3 0 C3.33 1.32 3.66 2.64 4 4 C2.68 4.33 1.36 4.66 0 5 C-0.5625 3.0625 -0.5625 3.0625 -1 1 C-0.67 0.67 -0.34 0.34 0 0 Z " fill="#E43339" transform="translate(117,229)"/>
<path d="M0 0 C0.33 0.66 0.66 1.32 1 2 C2.65 1.34 4.3 0.68 6 0 C4.35 1.98 2.7 3.96 1 6 C0.34 5.67 -0.32 5.34 -1 5 C-0.67 3.35 -0.34 1.7 0 0 Z " fill="#EEA0A7" transform="translate(179,225)"/>
<path d="M0 0 C3.36591866 1.44253657 5.51047079 3.33264727 8 6 C7.34 6 6.68 6 6 6 C5.67 6.99 5.34 7.98 5 9 C1.125 2.25 1.125 2.25 0 0 Z " fill="#FCB8B5" transform="translate(234,219)"/>
<path d="M0 0 C0.99 0.33 1.98 0.66 3 1 C0.47043472 4.0916909 -2.22454612 4.90931332 -6 6 C-4 4 -2 2 0 0 Z " fill="#FEDFDE" transform="translate(159,218)"/>
<path d="M0 0 C0.99 0.33 1.98 0.66 3 1 C3.33 2.65 3.66 4.3 4 6 C1.525 5.01 1.525 5.01 -1 4 C-0.67 2.68 -0.34 1.36 0 0 Z " fill="#C96061" transform="translate(163,216)"/>
<path d="M0 0 C0.33 0.66 0.66 1.32 1 2 C-1.97 2.66 -4.94 3.32 -8 4 C-8 3.34 -8 2.68 -8 2 C-4.77208445 -0.1519437 -3.71599191 -0.20086443 0 0 Z " fill="#DB383C" transform="translate(94,213)"/>
<path d="M0 0 C1.32 0 2.64 0 4 0 C3.67 1.65 3.34 3.3 3 5 C2.01 5 1.02 5 0 5 C0 3.35 0 1.7 0 0 Z " fill="#D43D40" transform="translate(151,209)"/>
<path d="M0 0 C0.99 0.33 1.98 0.66 3 1 C1.35 2.98 -0.3 4.96 -2 7 C-2.66 6.67 -3.32 6.34 -4 6 C-2.84826645 3.53199953 -1.95216435 1.95216435 0 0 Z " fill="#CFB47F" transform="translate(133,177)"/>
<path d="M0 0 C2.46278801 2.46278801 2.99771255 4.70676982 4 8 C2.68 8 1.36 8 0 8 C0 5.36 0 2.72 0 0 Z " fill="#DB4C53" transform="translate(226,93)"/>
<path d="M0 0 C1.258125 0.12375 2.51625 0.2475 3.8125 0.375 C4.87404297 0.47941406 4.87404297 0.47941406 5.95703125 0.5859375 C8 1 8 1 11 3 C8.83032311 3.95465783 7.43671207 4.14401212 5.17578125 3.3984375 C3.4315257 2.64129615 1.71372869 1.82390802 0 1 C0 0.67 0 0.34 0 0 Z " fill="#DA5559" transform="translate(135,244)"/>
<path d="M0 0 C0.66 0.33 1.32 0.66 2 1 C1.67 1.66 1.34 2.32 1 3 C1.66 3.33 2.32 3.66 3 4 C0.69 4 -1.62 4 -4 4 C-4 3.34 -4 2.68 -4 2 C-2.125 0.9375 -2.125 0.9375 0 0 Z " fill="#F6ECD4" transform="translate(172,145)"/>
<path d="M0 0 C3.3 0 6.6 0 10 0 C9.34 1.65 8.68 3.3 8 5 C7.67 3.68 7.34 2.36 7 1 C4.69 1 2.38 1 0 1 C0 0.67 0 0.34 0 0 Z " fill="#CBB78D" transform="translate(169,136)"/>
<path d="M0 0 C0.99 0.33 1.98 0.66 3 1 C4.1875 4.0625 4.1875 4.0625 5 7 C4.01 7.495 4.01 7.495 3 8 C2.87625 7.195625 2.7525 6.39125 2.625 5.5625 C2.315625 4.2940625 2.315625 4.2940625 2 3 C1.34 2.67 0.68 2.34 0 2 C0 1.34 0 0.68 0 0 Z " fill="#FCCDCA" transform="translate(219,96)"/>
<path d="M0 0 C0 0.99 0 1.98 0 3 C0.99 3 1.98 3 3 3 C3 3.66 3 4.32 3 5 C0.03 4.505 0.03 4.505 -3 4 C-3.33 3.01 -3.66 2.02 -4 1 C-2 0 -2 0 0 0 Z " fill="#D93D41" transform="translate(187,84)"/>
<path d="M0 0 C0.33 0.99 0.66 1.98 1 3 C-0.65 4.32 -2.3 5.64 -4 7 C-4.66 6.34 -5.32 5.68 -6 5 C-4.02 3.35 -2.04 1.7 0 0 Z " fill="#FAC4C5" transform="translate(158,72)"/>
<path d="M0 0 C0.66 0.33 1.32 0.66 2 1 C2 1.66 2 2.32 2 3 C2.99 3 3.98 3 5 3 C5.33 3.99 5.66 4.98 6 6 C2.62496331 4.8141763 0.35277269 3.72426311 -2 1 C-1.34 0.67 -0.68 0.34 0 0 Z " fill="#FCDAD8" transform="translate(175,72)"/>
</svg>
